<?xml version="1.0" encoding="utf-8" standalone="no"?>
<!DOCTYPE svg PUBLIC "-//W3C//DTD SVG 1.1//EN"
  "http://www.w3.org/Graphics/SVG/1.1/DTD/svg11.dtd">
<!-- Created with matplotlib (https://matplotlib.org/) -->
<svg height="748.08pt" version="1.1" viewBox="0 0 720 748.08" width="720pt" xmlns="http://www.w3.org/2000/svg" xmlns:xlink="http://www.w3.org/1999/xlink">
 <defs>
  <style type="text/css">
*{stroke-linecap:butt;stroke-linejoin:round;}
  </style>
 </defs>
 <g id="figure_1">
  <g id="patch_1">
   <path d="M 0 748.08 
L 720 748.08 
L 720 0 
L 0 0 
z
" style="fill:#ffffff;"/>
  </g>
  <g id="axes_1">
   <g id="patch_2">
    <path clip-path="url(#p58d5d20c79)" d="M 90 665.7912 
L 266.966754 665.7912 
L 266.966754 370.972334 
L 90 370.972334 
z
" style="fill:#005a24;"/>
   </g>
   <g id="patch_3">
    <path clip-path="url(#p58d5d20c79)" d="M 90 370.972334 
L 266.966754 370.972334 
L 266.966754 253.755194 
L 90 253.755194 
z
" style="fill:#caeac3;"/>
   </g>
   <g id="patch_4">
    <path clip-path="url(#p58d5d20c79)" d="M 90 253.755194 
L 266.966754 253.755194 
L 266.966754 89.7696 
L 90 89.7696 
z
" style="fill:#90d18d;"/>
   </g>
   <g id="patch_5">
    <path clip-path="url(#p58d5d20c79)" d="M 266.966754 665.7912 
L 505.419817 665.7912 
L 505.419817 580.5565 
L 266.966754 580.5565 
z
" style="fill:#cbebc5;"/>
   </g>
   <g id="patch_6">
    <path clip-path="url(#p58d5d20c79)" d="M 505.419817 665.7912 
L 648 665.7912 
L 648 580.5565 
L 505.419817 580.5565 
z
" style="fill:#f0f9ec;"/>
   </g>
   <g id="patch_7">
    <path clip-path="url(#p58d5d20c79)" d="M 266.966754 580.5565 
L 648 580.5565 
L 648 435.38256 
L 266.966754 435.38256 
z
" style="fill:#00441b;"/>
   </g>
   <g id="patch_8">
    <path clip-path="url(#p58d5d20c79)" d="M 266.966754 435.38256 
L 363.05867 435.38256 
L 363.05867 326.35639 
L 266.966754 326.35639 
z
" style="fill:#f5fbf2;"/>
   </g>
   <g id="patch_9">
    <path clip-path="url(#p58d5d20c79)" d="M 266.966754 326.35639 
L 363.05867 326.35639 
L 363.05867 222.781528 
L 266.966754 222.781528 
z
" style="fill:#f6fcf4;"/>
   </g>
   <g id="patch_10">
    <path clip-path="url(#p58d5d20c79)" d="M 266.966754 222.781528 
L 363.05867 222.781528 
L 363.05867 89.7696 
L 266.966754 89.7696 
z
" style="fill:#edf8ea;"/>
   </g>
   <g id="patch_11">
    <path clip-path="url(#p58d5d20c79)" d="M 363.05867 435.38256 
L 490.637706 435.38256 
L 490.637706 199.703935 
L 363.05867 199.703935 
z
" style="fill:#87cd86;"/>
   </g>
   <g id="patch_12">
    <path clip-path="url(#p58d5d20c79)" d="M 490.637706 435.38256 
L 648 435.38256 
L 648 199.703935 
L 490.637706 199.703935 
z
" style="fill:#4bb062;"/>
   </g>
   <g id="patch_13">
    <path clip-path="url(#p58d5d20c79)" d="M 363.05867 199.703935 
L 451.685907 199.703935 
L 451.685907 89.7696 
L 363.05867 89.7696 
z
" style="fill:#f7fcf5;"/>
   </g>
   <g id="patch_14">
    <path clip-path="url(#p58d5d20c79)" d="M 451.685907 199.703935 
L 648 199.703935 
L 648 89.7696 
L 451.685907 89.7696 
z
" style="fill:#c4e8bd;"/>
   </g>
   <g id="text_1">
    <!-- dog walking -->
    <defs>
     <path d="M 45.40625 46.390625 
L 45.40625 75.984375 
L 54.390625 75.984375 
L 54.390625 0 
L 45.40625 0 
L 45.40625 8.203125 
Q 42.578125 3.328125 38.25 0.953125 
Q 33.9375 -1.421875 27.875 -1.421875 
Q 17.96875 -1.421875 11.734375 6.484375 
Q 5.515625 14.40625 5.515625 27.296875 
Q 5.515625 40.1875 11.734375 48.09375 
Q 17.96875 56 27.875 56 
Q 33.9375 56 38.25 53.625 
Q 42.578125 51.265625 45.40625 46.390625 
z
M 14.796875 27.296875 
Q 14.796875 17.390625 18.875 11.75 
Q 22.953125 6.109375 30.078125 6.109375 
Q 37.203125 6.109375 41.296875 11.75 
Q 45.40625 17.390625 45.40625 27.296875 
Q 45.40625 37.203125 41.296875 42.84375 
Q 37.203125 48.484375 30.078125 48.484375 
Q 22.953125 48.484375 18.875 42.84375 
Q 14.796875 37.203125 14.796875 27.296875 
z
" id="DejaVuSans-100"/>
     <path d="M 30.609375 48.390625 
Q 23.390625 48.390625 19.1875 42.75 
Q 14.984375 37.109375 14.984375 27.296875 
Q 14.984375 17.484375 19.15625 11.84375 
Q 23.34375 6.203125 30.609375 6.203125 
Q 37.796875 6.203125 41.984375 11.859375 
Q 46.1875 17.53125 46.1875 27.296875 
Q 46.1875 37.015625 41.984375 42.703125 
Q 37.796875 48.390625 30.609375 48.390625 
z
M 30.609375 56 
Q 42.328125 56 49.015625 48.375 
Q 55.71875 40.765625 55.71875 27.296875 
Q 55.71875 13.875 49.015625 6.21875 
Q 42.328125 -1.421875 30.609375 -1.421875 
Q 18.84375 -1.421875 12.171875 6.21875 
Q 5.515625 13.875 5.515625 27.296875 
Q 5.515625 40.765625 12.171875 48.375 
Q 18.84375 56 30.609375 56 
z
" id="DejaVuSans-111"/>
     <path d="M 45.40625 27.984375 
Q 45.40625 37.75 41.375 43.109375 
Q 37.359375 48.484375 30.078125 48.484375 
Q 22.859375 48.484375 18.828125 43.109375 
Q 14.796875 37.75 14.796875 27.984375 
Q 14.796875 18.265625 18.828125 12.890625 
Q 22.859375 7.515625 30.078125 7.515625 
Q 37.359375 7.515625 41.375 12.890625 
Q 45.40625 18.265625 45.40625 27.984375 
z
M 54.390625 6.78125 
Q 54.390625 -7.171875 48.1875 -13.984375 
Q 42 -20.796875 29.203125 -20.796875 
Q 24.46875 -20.796875 20.265625 -20.09375 
Q 16.0625 -19.390625 12.109375 -17.921875 
L 12.109375 -9.1875 
Q 16.0625 -11.328125 19.921875 -12.34375 
Q 23.78125 -13.375 27.78125 -13.375 
Q 36.625 -13.375 41.015625 -8.765625 
Q 45.40625 -4.15625 45.40625 5.171875 
L 45.40625 9.625 
Q 42.625 4.78125 38.28125 2.390625 
Q 33.9375 0 27.875 0 
Q 17.828125 0 11.671875 7.65625 
Q 5.515625 15.328125 5.515625 27.984375 
Q 5.515625 40.671875 11.671875 48.328125 
Q 17.828125 56 27.875 56 
Q 33.9375 56 38.28125 53.609375 
Q 42.625 51.21875 45.40625 46.390625 
L 45.40625 54.6875 
L 54.390625 54.6875 
z
" id="DejaVuSans-103"/>
     <path id="DejaVuSans-32"/>
     <path d="M 4.203125 54.6875 
L 13.1875 54.6875 
L 24.421875 12.015625 
L 35.59375 54.6875 
L 46.1875 54.6875 
L 57.421875 12.015625 
L 68.609375 54.6875 
L 77.59375 54.6875 
L 63.28125 0 
L 52.6875 0 
L 40.921875 44.828125 
L 29.109375 0 
L 18.5 0 
z
" id="DejaVuSans-119"/>
     <path d="M 34.28125 27.484375 
Q 23.390625 27.484375 19.1875 25 
Q 14.984375 22.515625 14.984375 16.5 
Q 14.984375 11.71875 18.140625 8.90625 
Q 21.296875 6.109375 26.703125 6.109375 
Q 34.1875 6.109375 38.703125 11.40625 
Q 43.21875 16.703125 43.21875 25.484375 
L 43.21875 27.484375 
z
M 52.203125 31.203125 
L 52.203125 0 
L 43.21875 0 
L 43.21875 8.296875 
Q 40.140625 3.328125 35.546875 0.953125 
Q 30.953125 -1.421875 24.3125 -1.421875 
Q 15.921875 -1.421875 10.953125 3.296875 
Q 6 8.015625 6 15.921875 
Q 6 25.140625 12.171875 29.828125 
Q 18.359375 34.515625 30.609375 34.515625 
L 43.21875 34.515625 
L 43.21875 35.40625 
Q 43.21875 41.609375 39.140625 45 
Q 35.0625 48.390625 27.6875 48.390625 
Q 23 48.390625 18.546875 47.265625 
Q 14.109375 46.140625 10.015625 43.890625 
L 10.015625 52.203125 
Q 14.9375 54.109375 19.578125 55.046875 
Q 24.21875 56 28.609375 56 
Q 40.484375 56 46.34375 49.84375 
Q 52.203125 43.703125 52.203125 31.203125 
z
" id="DejaVuSans-97"/>
     <path d="M 9.421875 75.984375 
L 18.40625 75.984375 
L 18.40625 0 
L 9.421875 0 
z
" id="DejaVuSans-108"/>
     <path d="M 9.078125 75.984375 
L 18.109375 75.984375 
L 18.109375 31.109375 
L 44.921875 54.6875 
L 56.390625 54.6875 
L 27.390625 29.109375 
L 57.625 0 
L 45.90625 0 
L 18.109375 26.703125 
L 18.109375 0 
L 9.078125 0 
z
" id="DejaVuSans-107"/>
     <path d="M 9.421875 54.6875 
L 18.40625 54.6875 
L 18.40625 0 
L 9.421875 0 
z
M 9.421875 75.984375 
L 18.40625 75.984375 
L 18.40625 64.59375 
L 9.421875 64.59375 
z
" id="DejaVuSans-105"/>
     <path d="M 54.890625 33.015625 
L 54.890625 0 
L 45.90625 0 
L 45.90625 32.71875 
Q 45.90625 40.484375 42.875 44.328125 
Q 39.84375 48.1875 33.796875 48.1875 
Q 26.515625 48.1875 22.3125 43.546875 
Q 18.109375 38.921875 18.109375 30.90625 
L 18.109375 0 
L 9.078125 0 
L 9.078125 54.6875 
L 18.109375 54.6875 
L 18.109375 46.1875 
Q 21.34375 51.125 25.703125 53.5625 
Q 30.078125 56 35.796875 56 
Q 45.21875 56 50.046875 50.171875 
Q 54.890625 44.34375 54.890625 33.015625 
z
" id="DejaVuSans-110"/>
    </defs>
    <g transform="translate(148.316971 521.141142)scale(0.1 -0.1)">
     <use xlink:href="#DejaVuSans-100"/>
     <use x="63.476562" xlink:href="#DejaVuSans-111"/>
     <use x="124.658203" xlink:href="#DejaVuSans-103"/>
     <use x="188.134766" xlink:href="#DejaVuSans-32"/>
     <use x="219.921875" xlink:href="#DejaVuSans-119"/>
     <use x="301.708984" xlink:href="#DejaVuSans-97"/>
     <use x="362.988281" xlink:href="#DejaVuSans-108"/>
     <use x="390.771484" xlink:href="#DejaVuSans-107"/>
     <use x="448.681641" xlink:href="#DejaVuSans-105"/>
     <use x="476.464844" xlink:href="#DejaVuSans-110"/>
     <use x="539.84375" xlink:href="#DejaVuSans-103"/>
    </g>
   </g>
   <g id="text_2">
    <!-- jogging -->
    <defs>
     <path d="M 9.421875 54.6875 
L 18.40625 54.6875 
L 18.40625 -0.984375 
Q 18.40625 -11.421875 14.421875 -16.109375 
Q 10.453125 -20.796875 1.609375 -20.796875 
L -1.8125 -20.796875 
L -1.8125 -13.1875 
L 0.59375 -13.1875 
Q 5.71875 -13.1875 7.5625 -10.8125 
Q 9.421875 -8.453125 9.421875 -0.984375 
z
M 9.421875 75.984375 
L 18.40625 75.984375 
L 18.40625 64.59375 
L 9.421875 64.59375 
z
" id="DejaVuSans-106"/>
    </defs>
    <g transform="translate(159.954471 315.123139)scale(0.1 -0.1)">
     <use xlink:href="#DejaVuSans-106"/>
     <use x="27.783203" xlink:href="#DejaVuSans-111"/>
     <use x="88.964844" xlink:href="#DejaVuSans-103"/>
     <use x="152.441406" xlink:href="#DejaVuSans-103"/>
     <use x="215.917969" xlink:href="#DejaVuSans-105"/>
     <use x="243.701172" xlink:href="#DejaVuSans-110"/>
     <use x="307.080078" xlink:href="#DejaVuSans-103"/>
    </g>
   </g>
   <g id="text_3">
    <!-- cycling -->
    <defs>
     <path d="M 48.78125 52.59375 
L 48.78125 44.1875 
Q 44.96875 46.296875 41.140625 47.34375 
Q 37.3125 48.390625 33.40625 48.390625 
Q 24.65625 48.390625 19.8125 42.84375 
Q 14.984375 37.3125 14.984375 27.296875 
Q 14.984375 17.28125 19.8125 11.734375 
Q 24.65625 6.203125 33.40625 6.203125 
Q 37.3125 6.203125 41.140625 7.25 
Q 44.96875 8.296875 48.78125 10.40625 
L 48.78125 2.09375 
Q 45.015625 0.34375 40.984375 -0.53125 
Q 36.96875 -1.421875 32.421875 -1.421875 
Q 20.0625 -1.421875 12.78125 6.34375 
Q 5.515625 14.109375 5.515625 27.296875 
Q 5.515625 40.671875 12.859375 48.328125 
Q 20.21875 56 33.015625 56 
Q 37.15625 56 41.109375 55.140625 
Q 45.0625 54.296875 48.78125 52.59375 
z
" id="DejaVuSans-99"/>
     <path d="M 32.171875 -5.078125 
Q 28.375 -14.84375 24.75 -17.8125 
Q 21.140625 -20.796875 15.09375 -20.796875 
L 7.90625 -20.796875 
L 7.90625 -13.28125 
L 13.1875 -13.28125 
Q 16.890625 -13.28125 18.9375 -11.515625 
Q 21 -9.765625 23.484375 -3.21875 
L 25.09375 0.875 
L 2.984375 54.6875 
L 12.5 54.6875 
L 29.59375 11.921875 
L 46.6875 54.6875 
L 56.203125 54.6875 
z
" id="DejaVuSans-121"/>
    </defs>
    <g transform="translate(160.904471 174.521772)scale(0.1 -0.1)">
     <use xlink:href="#DejaVuSans-99"/>
     <use x="54.980469" xlink:href="#DejaVuSans-121"/>
     <use x="114.160156" xlink:href="#DejaVuSans-99"/>
     <use x="169.140625" xlink:href="#DejaVuSans-108"/>
     <use x="196.923828" xlink:href="#DejaVuSans-105"/>
     <use x="224.707031" xlink:href="#DejaVuSans-110"/>
     <use x="288.085938" xlink:href="#DejaVuSans-103"/>
    </g>
   </g>
   <g id="text_4">
    <!--  -->
    <g transform="translate(386.193286 609.136506)scale(0.1 -0.1)"/>
    <!-- water activities  -->
    <defs>
     <path d="M 18.3125 70.21875 
L 18.3125 54.6875 
L 36.8125 54.6875 
L 36.8125 47.703125 
L 18.3125 47.703125 
L 18.3125 18.015625 
Q 18.3125 11.328125 20.140625 9.421875 
Q 21.96875 7.515625 27.59375 7.515625 
L 36.8125 7.515625 
L 36.8125 0 
L 27.59375 0 
Q 17.1875 0 13.234375 3.875 
Q 9.28125 7.765625 9.28125 18.015625 
L 9.28125 47.703125 
L 2.6875 47.703125 
L 2.6875 54.6875 
L 9.28125 54.6875 
L 9.28125 70.21875 
z
" id="DejaVuSans-116"/>
     <path d="M 56.203125 29.59375 
L 56.203125 25.203125 
L 14.890625 25.203125 
Q 15.484375 15.921875 20.484375 11.0625 
Q 25.484375 6.203125 34.421875 6.203125 
Q 39.59375 6.203125 44.453125 7.46875 
Q 49.3125 8.734375 54.109375 11.28125 
L 54.109375 2.78125 
Q 49.265625 0.734375 44.1875 -0.34375 
Q 39.109375 -1.421875 33.890625 -1.421875 
Q 20.796875 -1.421875 13.15625 6.1875 
Q 5.515625 13.8125 5.515625 26.8125 
Q 5.515625 40.234375 12.765625 48.109375 
Q 20.015625 56 32.328125 56 
Q 43.359375 56 49.78125 48.890625 
Q 56.203125 41.796875 56.203125 29.59375 
z
M 47.21875 32.234375 
Q 47.125 39.59375 43.09375 43.984375 
Q 39.0625 48.390625 32.421875 48.390625 
Q 24.90625 48.390625 20.390625 44.140625 
Q 15.875 39.890625 15.1875 32.171875 
z
" id="DejaVuSans-101"/>
     <path d="M 41.109375 46.296875 
Q 39.59375 47.171875 37.8125 47.578125 
Q 36.03125 48 33.890625 48 
Q 26.265625 48 22.1875 43.046875 
Q 18.109375 38.09375 18.109375 28.8125 
L 18.109375 0 
L 9.078125 0 
L 9.078125 54.6875 
L 18.109375 54.6875 
L 18.109375 46.1875 
Q 20.953125 51.171875 25.484375 53.578125 
Q 30.03125 56 36.53125 56 
Q 37.453125 56 38.578125 55.875 
Q 39.703125 55.765625 41.0625 55.515625 
z
" id="DejaVuSans-114"/>
     <path d="M 2.984375 54.6875 
L 12.5 54.6875 
L 29.59375 8.796875 
L 46.6875 54.6875 
L 56.203125 54.6875 
L 35.6875 0 
L 23.484375 0 
z
" id="DejaVuSans-118"/>
     <path d="M 44.28125 53.078125 
L 44.28125 44.578125 
Q 40.484375 46.53125 36.375 47.5 
Q 32.28125 48.484375 27.875 48.484375 
Q 21.1875 48.484375 17.84375 46.4375 
Q 14.5 44.390625 14.5 40.28125 
Q 14.5 37.15625 16.890625 35.375 
Q 19.28125 33.59375 26.515625 31.984375 
L 29.59375 31.296875 
Q 39.15625 29.25 43.1875 25.515625 
Q 47.21875 21.78125 47.21875 15.09375 
Q 47.21875 7.46875 41.1875 3.015625 
Q 35.15625 -1.421875 24.609375 -1.421875 
Q 20.21875 -1.421875 15.453125 -0.5625 
Q 10.6875 0.296875 5.421875 2 
L 5.421875 11.28125 
Q 10.40625 8.6875 15.234375 7.390625 
Q 20.0625 6.109375 24.8125 6.109375 
Q 31.15625 6.109375 34.5625 8.28125 
Q 37.984375 10.453125 37.984375 14.40625 
Q 37.984375 18.0625 35.515625 20.015625 
Q 33.0625 21.96875 24.703125 23.78125 
L 21.578125 24.515625 
Q 13.234375 26.265625 9.515625 29.90625 
Q 5.8125 33.546875 5.8125 39.890625 
Q 5.8125 47.609375 11.28125 51.796875 
Q 16.75 56 26.8125 56 
Q 31.78125 56 36.171875 55.265625 
Q 40.578125 54.546875 44.28125 53.078125 
z
" id="DejaVuSans-115"/>
    </defs>
    <g transform="translate(346.228442 620.334319)scale(0.1 -0.1)">
     <use xlink:href="#DejaVuSans-119"/>
     <use x="81.787109" xlink:href="#DejaVuSans-97"/>
     <use x="143.066406" xlink:href="#DejaVuSans-116"/>
     <use x="182.275391" xlink:href="#DejaVuSans-101"/>
     <use x="243.798828" xlink:href="#DejaVuSans-114"/>
     <use x="284.912109" xlink:href="#DejaVuSans-32"/>
     <use x="316.699219" xlink:href="#DejaVuSans-97"/>
     <use x="377.978516" xlink:href="#DejaVuSans-99"/>
     <use x="432.958984" xlink:href="#DejaVuSans-116"/>
     <use x="472.167969" xlink:href="#DejaVuSans-105"/>
     <use x="499.951172" xlink:href="#DejaVuSans-118"/>
     <use x="559.130859" xlink:href="#DejaVuSans-105"/>
     <use x="586.914062" xlink:href="#DejaVuSans-116"/>
     <use x="626.123047" xlink:href="#DejaVuSans-105"/>
     <use x="653.90625" xlink:href="#DejaVuSans-101"/>
     <use x="715.429688" xlink:href="#DejaVuSans-115"/>
     <use x="767.529297" xlink:href="#DejaVuSans-32"/>
    </g>
    <!--  (SUP, fishing,   -->
    <defs>
     <path d="M 31 75.875 
Q 24.46875 64.65625 21.28125 53.65625 
Q 18.109375 42.671875 18.109375 31.390625 
Q 18.109375 20.125 21.3125 9.0625 
Q 24.515625 -2 31 -13.1875 
L 23.1875 -13.1875 
Q 15.875 -1.703125 12.234375 9.375 
Q 8.59375 20.453125 8.59375 31.390625 
Q 8.59375 42.28125 12.203125 53.3125 
Q 15.828125 64.359375 23.1875 75.875 
z
" id="DejaVuSans-40"/>
     <path d="M 53.515625 70.515625 
L 53.515625 60.890625 
Q 47.90625 63.578125 42.921875 64.890625 
Q 37.9375 66.21875 33.296875 66.21875 
Q 25.25 66.21875 20.875 63.09375 
Q 16.5 59.96875 16.5 54.203125 
Q 16.5 49.359375 19.40625 46.890625 
Q 22.3125 44.4375 30.421875 42.921875 
L 36.375 41.703125 
Q 47.40625 39.59375 52.65625 34.296875 
Q 57.90625 29 57.90625 20.125 
Q 57.90625 9.515625 50.796875 4.046875 
Q 43.703125 -1.421875 29.984375 -1.421875 
Q 24.8125 -1.421875 18.96875 -0.25 
Q 13.140625 0.921875 6.890625 3.21875 
L 6.890625 13.375 
Q 12.890625 10.015625 18.65625 8.296875 
Q 24.421875 6.59375 29.984375 6.59375 
Q 38.421875 6.59375 43.015625 9.90625 
Q 47.609375 13.234375 47.609375 19.390625 
Q 47.609375 24.75 44.3125 27.78125 
Q 41.015625 30.8125 33.5 32.328125 
L 27.484375 33.5 
Q 16.453125 35.6875 11.515625 40.375 
Q 6.59375 45.0625 6.59375 53.421875 
Q 6.59375 63.09375 13.40625 68.65625 
Q 20.21875 74.21875 32.171875 74.21875 
Q 37.3125 74.21875 42.625 73.28125 
Q 47.953125 72.359375 53.515625 70.515625 
z
" id="DejaVuSans-83"/>
     <path d="M 8.6875 72.90625 
L 18.609375 72.90625 
L 18.609375 28.609375 
Q 18.609375 16.890625 22.84375 11.734375 
Q 27.09375 6.59375 36.625 6.59375 
Q 46.09375 6.59375 50.34375 11.734375 
Q 54.59375 16.890625 54.59375 28.609375 
L 54.59375 72.90625 
L 64.5 72.90625 
L 64.5 27.390625 
Q 64.5 13.140625 57.4375 5.859375 
Q 50.390625 -1.421875 36.625 -1.421875 
Q 22.796875 -1.421875 15.734375 5.859375 
Q 8.6875 13.140625 8.6875 27.390625 
z
" id="DejaVuSans-85"/>
     <path d="M 19.671875 64.796875 
L 19.671875 37.40625 
L 32.078125 37.40625 
Q 38.96875 37.40625 42.71875 40.96875 
Q 46.484375 44.53125 46.484375 51.125 
Q 46.484375 57.671875 42.71875 61.234375 
Q 38.96875 64.796875 32.078125 64.796875 
z
M 9.8125 72.90625 
L 32.078125 72.90625 
Q 44.34375 72.90625 50.609375 67.359375 
Q 56.890625 61.8125 56.890625 51.125 
Q 56.890625 40.328125 50.609375 34.8125 
Q 44.34375 29.296875 32.078125 29.296875 
L 19.671875 29.296875 
L 19.671875 0 
L 9.8125 0 
z
" id="DejaVuSans-80"/>
     <path d="M 11.71875 12.40625 
L 22.015625 12.40625 
L 22.015625 4 
L 14.015625 -11.625 
L 7.71875 -11.625 
L 11.71875 4 
z
" id="DejaVuSans-44"/>
     <path d="M 37.109375 75.984375 
L 37.109375 68.5 
L 28.515625 68.5 
Q 23.6875 68.5 21.796875 66.546875 
Q 19.921875 64.59375 19.921875 59.515625 
L 19.921875 54.6875 
L 34.71875 54.6875 
L 34.71875 47.703125 
L 19.921875 47.703125 
L 19.921875 0 
L 10.890625 0 
L 10.890625 47.703125 
L 2.296875 47.703125 
L 2.296875 54.6875 
L 10.890625 54.6875 
L 10.890625 58.5 
Q 10.890625 67.625 15.140625 71.796875 
Q 19.390625 75.984375 28.609375 75.984375 
z
" id="DejaVuSans-102"/>
     <path d="M 54.890625 33.015625 
L 54.890625 0 
L 45.90625 0 
L 45.90625 32.71875 
Q 45.90625 40.484375 42.875 44.328125 
Q 39.84375 48.1875 33.796875 48.1875 
Q 26.515625 48.1875 22.3125 43.546875 
Q 18.109375 38.921875 18.109375 30.90625 
L 18.109375 0 
L 9.078125 0 
L 9.078125 75.984375 
L 18.109375 75.984375 
L 18.109375 46.1875 
Q 21.34375 51.125 25.703125 53.5625 
Q 30.078125 56 35.796875 56 
Q 45.21875 56 50.046875 50.171875 
Q 54.890625 44.34375 54.890625 33.015625 
z
" id="DejaVuSans-104"/>
    </defs>
    <g transform="translate(348.205004 631.532131)scale(0.1 -0.1)">
     <use xlink:href="#DejaVuSans-32"/>
     <use x="31.787109" xlink:href="#DejaVuSans-40"/>
     <use x="70.800781" xlink:href="#DejaVuSans-83"/>
     <use x="134.277344" xlink:href="#DejaVuSans-85"/>
     <use x="207.470703" xlink:href="#DejaVuSans-80"/>
     <use x="267.773438" xlink:href="#DejaVuSans-44"/>
     <use x="299.560547" xlink:href="#DejaVuSans-32"/>
     <use x="331.347656" xlink:href="#DejaVuSans-102"/>
     <use x="366.552734" xlink:href="#DejaVuSans-105"/>
     <use x="394.335938" xlink:href="#DejaVuSans-115"/>
     <use x="446.435547" xlink:href="#DejaVuSans-104"/>
     <use x="509.814453" xlink:href="#DejaVuSans-105"/>
     <use x="537.597656" xlink:href="#DejaVuSans-110"/>
     <use x="600.976562" xlink:href="#DejaVuSans-103"/>
     <use x="664.453125" xlink:href="#DejaVuSans-44"/>
     <use x="696.240234" xlink:href="#DejaVuSans-32"/>
     <use x="728.027344" xlink:href="#DejaVuSans-32"/>
    </g>
    <!--  kayaking) -->
    <defs>
     <path d="M 8.015625 75.875 
L 15.828125 75.875 
Q 23.140625 64.359375 26.78125 53.3125 
Q 30.421875 42.28125 30.421875 31.390625 
Q 30.421875 20.453125 26.78125 9.375 
Q 23.140625 -1.703125 15.828125 -13.1875 
L 8.015625 -13.1875 
Q 14.5 -2 17.703125 9.0625 
Q 20.90625 20.125 20.90625 31.390625 
Q 20.90625 42.671875 17.703125 53.65625 
Q 14.5 64.65625 8.015625 75.875 
z
" id="DejaVuSans-41"/>
    </defs>
    <g transform="translate(360.044067 642.729944)scale(0.1 -0.1)">
     <use xlink:href="#DejaVuSans-32"/>
     <use x="31.787109" xlink:href="#DejaVuSans-107"/>
     <use x="89.681641" xlink:href="#DejaVuSans-97"/>
     <use x="150.960938" xlink:href="#DejaVuSans-121"/>
     <use x="210.140625" xlink:href="#DejaVuSans-97"/>
     <use x="271.419922" xlink:href="#DejaVuSans-107"/>
     <use x="329.330078" xlink:href="#DejaVuSans-105"/>
     <use x="357.113281" xlink:href="#DejaVuSans-110"/>
     <use x="420.492188" xlink:href="#DejaVuSans-103"/>
     <use x="483.96875" xlink:href="#DejaVuSans-41"/>
    </g>
   </g>
   <g id="text_5">
    <!-- winter activities  -->
    <g transform="translate(535.251315 614.735413)scale(0.1 -0.1)">
     <use xlink:href="#DejaVuSans-119"/>
     <use x="81.787109" xlink:href="#DejaVuSans-105"/>
     <use x="109.570312" xlink:href="#DejaVuSans-110"/>
     <use x="172.949219" xlink:href="#DejaVuSans-116"/>
     <use x="212.158203" xlink:href="#DejaVuSans-101"/>
     <use x="273.681641" xlink:href="#DejaVuSans-114"/>
     <use x="314.794922" xlink:href="#DejaVuSans-32"/>
     <use x="346.582031" xlink:href="#DejaVuSans-97"/>
     <use x="407.861328" xlink:href="#DejaVuSans-99"/>
     <use x="462.841797" xlink:href="#DejaVuSans-116"/>
     <use x="502.050781" xlink:href="#DejaVuSans-105"/>
     <use x="529.833984" xlink:href="#DejaVuSans-118"/>
     <use x="589.013672" xlink:href="#DejaVuSans-105"/>
     <use x="616.796875" xlink:href="#DejaVuSans-116"/>
     <use x="656.005859" xlink:href="#DejaVuSans-105"/>
     <use x="683.789062" xlink:href="#DejaVuSans-101"/>
     <use x="745.3125" xlink:href="#DejaVuSans-115"/>
     <use x="797.412109" xlink:href="#DejaVuSans-32"/>
    </g>
    <!--  (cross-country skiing,  -->
    <defs>
     <path d="M 4.890625 31.390625 
L 31.203125 31.390625 
L 31.203125 23.390625 
L 4.890625 23.390625 
z
" id="DejaVuSans-45"/>
     <path d="M 8.5 21.578125 
L 8.5 54.6875 
L 17.484375 54.6875 
L 17.484375 21.921875 
Q 17.484375 14.15625 20.5 10.265625 
Q 23.53125 6.390625 29.59375 6.390625 
Q 36.859375 6.390625 41.078125 11.03125 
Q 45.3125 15.671875 45.3125 23.6875 
L 45.3125 54.6875 
L 54.296875 54.6875 
L 54.296875 0 
L 45.3125 0 
L 45.3125 8.40625 
Q 42.046875 3.421875 37.71875 1 
Q 33.40625 -1.421875 27.6875 -1.421875 
Q 18.265625 -1.421875 13.375 4.4375 
Q 8.5 10.296875 8.5 21.578125 
z
M 31.109375 56 
z
" id="DejaVuSans-117"/>
    </defs>
    <g transform="translate(519.784909 625.933225)scale(0.1 -0.1)">
     <use xlink:href="#DejaVuSans-32"/>
     <use x="31.787109" xlink:href="#DejaVuSans-40"/>
     <use x="70.800781" xlink:href="#DejaVuSans-99"/>
     <use x="125.78125" xlink:href="#DejaVuSans-114"/>
     <use x="166.863281" xlink:href="#DejaVuSans-111"/>
     <use x="228.044922" xlink:href="#DejaVuSans-115"/>
     <use x="280.144531" xlink:href="#DejaVuSans-115"/>
     <use x="332.244141" xlink:href="#DejaVuSans-45"/>
     <use x="368.328125" xlink:href="#DejaVuSans-99"/>
     <use x="423.308594" xlink:href="#DejaVuSans-111"/>
     <use x="484.490234" xlink:href="#DejaVuSans-117"/>
     <use x="547.869141" xlink:href="#DejaVuSans-110"/>
     <use x="611.248047" xlink:href="#DejaVuSans-116"/>
     <use x="650.457031" xlink:href="#DejaVuSans-114"/>
     <use x="691.570312" xlink:href="#DejaVuSans-121"/>
     <use x="750.75" xlink:href="#DejaVuSans-32"/>
     <use x="782.537109" xlink:href="#DejaVuSans-115"/>
     <use x="834.636719" xlink:href="#DejaVuSans-107"/>
     <use x="892.546875" xlink:href="#DejaVuSans-105"/>
     <use x="920.330078" xlink:href="#DejaVuSans-105"/>
     <use x="948.113281" xlink:href="#DejaVuSans-110"/>
     <use x="1011.492188" xlink:href="#DejaVuSans-103"/>
     <use x="1074.96875" xlink:href="#DejaVuSans-44"/>
     <use x="1106.755859" xlink:href="#DejaVuSans-32"/>
    </g>
    <!--  ice-skating, sledding)  -->
    <g transform="translate(519.977877 637.131038)scale(0.1 -0.1)">
     <use xlink:href="#DejaVuSans-32"/>
     <use x="31.787109" xlink:href="#DejaVuSans-105"/>
     <use x="59.570312" xlink:href="#DejaVuSans-99"/>
     <use x="114.550781" xlink:href="#DejaVuSans-101"/>
     <use x="176.074219" xlink:href="#DejaVuSans-45"/>
     <use x="212.158203" xlink:href="#DejaVuSans-115"/>
     <use x="264.257812" xlink:href="#DejaVuSans-107"/>
     <use x="322.152344" xlink:href="#DejaVuSans-97"/>
     <use x="383.431641" xlink:href="#DejaVuSans-116"/>
     <use x="422.640625" xlink:href="#DejaVuSans-105"/>
     <use x="450.423828" xlink:href="#DejaVuSans-110"/>
     <use x="513.802734" xlink:href="#DejaVuSans-103"/>
     <use x="577.279297" xlink:href="#DejaVuSans-44"/>
     <use x="609.066406" xlink:href="#DejaVuSans-32"/>
     <use x="640.853516" xlink:href="#DejaVuSans-115"/>
     <use x="692.953125" xlink:href="#DejaVuSans-108"/>
     <use x="720.736328" xlink:href="#DejaVuSans-101"/>
     <use x="782.259766" xlink:href="#DejaVuSans-100"/>
     <use x="845.736328" xlink:href="#DejaVuSans-100"/>
     <use x="909.212891" xlink:href="#DejaVuSans-105"/>
     <use x="936.996094" xlink:href="#DejaVuSans-110"/>
     <use x="1000.375" xlink:href="#DejaVuSans-103"/>
     <use x="1063.851562" xlink:href="#DejaVuSans-41"/>
     <use x="1102.865234" xlink:href="#DejaVuSans-32"/>
    </g>
   </g>
   <g id="text_6">
    <!-- eating/drinking -->
    <defs>
     <path d="M 25.390625 72.90625 
L 33.6875 72.90625 
L 8.296875 -9.28125 
L 0 -9.28125 
z
" id="DejaVuSans-47"/>
    </defs>
    <g transform="translate(419.551346 510.728905)scale(0.1 -0.1)">
     <use xlink:href="#DejaVuSans-101"/>
     <use x="61.523438" xlink:href="#DejaVuSans-97"/>
     <use x="122.802734" xlink:href="#DejaVuSans-116"/>
     <use x="162.011719" xlink:href="#DejaVuSans-105"/>
     <use x="189.794922" xlink:href="#DejaVuSans-110"/>
     <use x="253.173828" xlink:href="#DejaVuSans-103"/>
     <use x="316.650391" xlink:href="#DejaVuSans-47"/>
     <use x="350.341797" xlink:href="#DejaVuSans-100"/>
     <use x="413.818359" xlink:href="#DejaVuSans-114"/>
     <use x="454.931641" xlink:href="#DejaVuSans-105"/>
     <use x="482.714844" xlink:href="#DejaVuSans-110"/>
     <use x="546.09375" xlink:href="#DejaVuSans-107"/>
     <use x="604.003906" xlink:href="#DejaVuSans-105"/>
     <use x="631.787109" xlink:href="#DejaVuSans-110"/>
     <use x="695.166016" xlink:href="#DejaVuSans-103"/>
    </g>
   </g>
   <g id="text_7">
    <!-- horse riding -->
    <g transform="translate(285.108024 383.62885)scale(0.1 -0.1)">
     <use xlink:href="#DejaVuSans-104"/>
     <use x="63.378906" xlink:href="#DejaVuSans-111"/>
     <use x="124.560547" xlink:href="#DejaVuSans-114"/>
     <use x="165.673828" xlink:href="#DejaVuSans-115"/>
     <use x="217.773438" xlink:href="#DejaVuSans-101"/>
     <use x="279.296875" xlink:href="#DejaVuSans-32"/>
     <use x="311.083984" xlink:href="#DejaVuSans-114"/>
     <use x="352.197266" xlink:href="#DejaVuSans-105"/>
     <use x="379.980469" xlink:href="#DejaVuSans-100"/>
     <use x="443.457031" xlink:href="#DejaVuSans-105"/>
     <use x="471.240234" xlink:href="#DejaVuSans-110"/>
     <use x="534.619141" xlink:href="#DejaVuSans-103"/>
    </g>
   </g>
   <g id="text_8">
    <!-- golf -->
    <g transform="translate(305.629899 277.328334)scale(0.1 -0.1)">
     <use xlink:href="#DejaVuSans-103"/>
     <use x="63.476562" xlink:href="#DejaVuSans-111"/>
     <use x="124.658203" xlink:href="#DejaVuSans-108"/>
     <use x="152.441406" xlink:href="#DejaVuSans-102"/>
    </g>
   </g>
   <g id="text_9">
    <!-- swimming -->
    <defs>
     <path d="M 52 44.1875 
Q 55.375 50.25 60.0625 53.125 
Q 64.75 56 71.09375 56 
Q 79.640625 56 84.28125 50.015625 
Q 88.921875 44.046875 88.921875 33.015625 
L 88.921875 0 
L 79.890625 0 
L 79.890625 32.71875 
Q 79.890625 40.578125 77.09375 44.375 
Q 74.3125 48.1875 68.609375 48.1875 
Q 61.625 48.1875 57.5625 43.546875 
Q 53.515625 38.921875 53.515625 30.90625 
L 53.515625 0 
L 44.484375 0 
L 44.484375 32.71875 
Q 44.484375 40.625 41.703125 44.40625 
Q 38.921875 48.1875 33.109375 48.1875 
Q 26.21875 48.1875 22.15625 43.53125 
Q 18.109375 38.875 18.109375 30.90625 
L 18.109375 0 
L 9.078125 0 
L 9.078125 54.6875 
L 18.109375 54.6875 
L 18.109375 46.1875 
Q 21.1875 51.21875 25.484375 53.609375 
Q 29.78125 56 35.6875 56 
Q 41.65625 56 45.828125 52.96875 
Q 50 49.953125 52 44.1875 
z
" id="DejaVuSans-109"/>
    </defs>
    <g transform="translate(289.457243 159.034939)scale(0.1 -0.1)">
     <use xlink:href="#DejaVuSans-115"/>
     <use x="52.099609" xlink:href="#DejaVuSans-119"/>
     <use x="133.886719" xlink:href="#DejaVuSans-105"/>
     <use x="161.669922" xlink:href="#DejaVuSans-109"/>
     <use x="259.082031" xlink:href="#DejaVuSans-109"/>
     <use x="356.494141" xlink:href="#DejaVuSans-105"/>
     <use x="384.277344" xlink:href="#DejaVuSans-110"/>
     <use x="447.65625" xlink:href="#DejaVuSans-103"/>
    </g>
   </g>
   <g id="text_10">
    <!-- Organized  -->
    <defs>
     <path d="M 39.40625 66.21875 
Q 28.65625 66.21875 22.328125 58.203125 
Q 16.015625 50.203125 16.015625 36.375 
Q 16.015625 22.609375 22.328125 14.59375 
Q 28.65625 6.59375 39.40625 6.59375 
Q 50.140625 6.59375 56.421875 14.59375 
Q 62.703125 22.609375 62.703125 36.375 
Q 62.703125 50.203125 56.421875 58.203125 
Q 50.140625 66.21875 39.40625 66.21875 
z
M 39.40625 74.21875 
Q 54.734375 74.21875 63.90625 63.9375 
Q 73.09375 53.65625 73.09375 36.375 
Q 73.09375 19.140625 63.90625 8.859375 
Q 54.734375 -1.421875 39.40625 -1.421875 
Q 24.03125 -1.421875 14.8125 8.828125 
Q 5.609375 19.09375 5.609375 36.375 
Q 5.609375 53.65625 14.8125 63.9375 
Q 24.03125 74.21875 39.40625 74.21875 
z
" id="DejaVuSans-79"/>
     <path d="M 5.515625 54.6875 
L 48.1875 54.6875 
L 48.1875 46.484375 
L 14.40625 7.171875 
L 48.1875 7.171875 
L 48.1875 0 
L 4.296875 0 
L 4.296875 8.203125 
L 38.09375 47.515625 
L 5.515625 47.515625 
z
" id="DejaVuSans-122"/>
    </defs>
    <g transform="translate(399.597407 309.10481)scale(0.1 -0.1)">
     <use xlink:href="#DejaVuSans-79"/>
     <use x="78.710938" xlink:href="#DejaVuSans-114"/>
     <use x="119.808594" xlink:href="#DejaVuSans-103"/>
     <use x="183.285156" xlink:href="#DejaVuSans-97"/>
     <use x="244.564453" xlink:href="#DejaVuSans-110"/>
     <use x="307.943359" xlink:href="#DejaVuSans-105"/>
     <use x="335.726562" xlink:href="#DejaVuSans-122"/>
     <use x="388.216797" xlink:href="#DejaVuSans-101"/>
     <use x="449.740234" xlink:href="#DejaVuSans-100"/>
     <use x="513.216797" xlink:href="#DejaVuSans-32"/>
    </g>
    <!--  tree-climbing  -->
    <defs>
     <path d="M 48.6875 27.296875 
Q 48.6875 37.203125 44.609375 42.84375 
Q 40.53125 48.484375 33.40625 48.484375 
Q 26.265625 48.484375 22.1875 42.84375 
Q 18.109375 37.203125 18.109375 27.296875 
Q 18.109375 17.390625 22.1875 11.75 
Q 26.265625 6.109375 33.40625 6.109375 
Q 40.53125 6.109375 44.609375 11.75 
Q 48.6875 17.390625 48.6875 27.296875 
z
M 18.109375 46.390625 
Q 20.953125 51.265625 25.265625 53.625 
Q 29.59375 56 35.59375 56 
Q 45.5625 56 51.78125 48.09375 
Q 58.015625 40.1875 58.015625 27.296875 
Q 58.015625 14.40625 51.78125 6.484375 
Q 45.5625 -1.421875 35.59375 -1.421875 
Q 29.59375 -1.421875 25.265625 0.953125 
Q 20.953125 3.328125 18.109375 8.203125 
L 18.109375 0 
L 9.078125 0 
L 9.078125 75.984375 
L 18.109375 75.984375 
z
" id="DejaVuSans-98"/>
    </defs>
    <g transform="translate(390.395063 320.302623)scale(0.1 -0.1)">
     <use xlink:href="#DejaVuSans-32"/>
     <use x="31.787109" xlink:href="#DejaVuSans-116"/>
     <use x="70.996094" xlink:href="#DejaVuSans-114"/>
     <use x="112.078125" xlink:href="#DejaVuSans-101"/>
     <use x="173.601562" xlink:href="#DejaVuSans-101"/>
     <use x="235.125" xlink:href="#DejaVuSans-45"/>
     <use x="271.208984" xlink:href="#DejaVuSans-99"/>
     <use x="326.189453" xlink:href="#DejaVuSans-108"/>
     <use x="353.972656" xlink:href="#DejaVuSans-105"/>
     <use x="381.755859" xlink:href="#DejaVuSans-109"/>
     <use x="479.167969" xlink:href="#DejaVuSans-98"/>
     <use x="542.644531" xlink:href="#DejaVuSans-105"/>
     <use x="570.427734" xlink:href="#DejaVuSans-110"/>
     <use x="633.806641" xlink:href="#DejaVuSans-103"/>
     <use x="697.283203" xlink:href="#DejaVuSans-32"/>
    </g>
    <!--  -->
    <g transform="translate(426.848188 331.500435)scale(0.1 -0.1)"/>
   </g>
   <g id="text_11">
    <!-- other  -->
    <g transform="translate(554.409478 303.505904)scale(0.1 -0.1)">
     <use xlink:href="#DejaVuSans-111"/>
     <use x="61.181641" xlink:href="#DejaVuSans-116"/>
     <use x="100.390625" xlink:href="#DejaVuSans-104"/>
     <use x="163.769531" xlink:href="#DejaVuSans-101"/>
     <use x="225.292969" xlink:href="#DejaVuSans-114"/>
     <use x="266.40625" xlink:href="#DejaVuSans-32"/>
    </g>
    <!--  outdoor activities  -->
    <g transform="translate(522.47354 314.703716)scale(0.1 -0.1)">
     <use xlink:href="#DejaVuSans-32"/>
     <use x="31.787109" xlink:href="#DejaVuSans-111"/>
     <use x="92.96875" xlink:href="#DejaVuSans-117"/>
     <use x="156.347656" xlink:href="#DejaVuSans-116"/>
     <use x="195.556641" xlink:href="#DejaVuSans-100"/>
     <use x="259.033203" xlink:href="#DejaVuSans-111"/>
     <use x="320.214844" xlink:href="#DejaVuSans-111"/>
     <use x="381.396484" xlink:href="#DejaVuSans-114"/>
     <use x="422.509766" xlink:href="#DejaVuSans-32"/>
     <use x="454.296875" xlink:href="#DejaVuSans-97"/>
     <use x="515.576172" xlink:href="#DejaVuSans-99"/>
     <use x="570.556641" xlink:href="#DejaVuSans-116"/>
     <use x="609.765625" xlink:href="#DejaVuSans-105"/>
     <use x="637.548828" xlink:href="#DejaVuSans-118"/>
     <use x="696.728516" xlink:href="#DejaVuSans-105"/>
     <use x="724.511719" xlink:href="#DejaVuSans-116"/>
     <use x="763.720703" xlink:href="#DejaVuSans-105"/>
     <use x="791.503906" xlink:href="#DejaVuSans-101"/>
     <use x="853.027344" xlink:href="#DejaVuSans-115"/>
     <use x="905.126953" xlink:href="#DejaVuSans-32"/>
    </g>
    <!--  (walking around,  -->
    <g transform="translate(524.153228 325.901529)scale(0.1 -0.1)">
     <use xlink:href="#DejaVuSans-32"/>
     <use x="31.787109" xlink:href="#DejaVuSans-40"/>
     <use x="70.800781" xlink:href="#DejaVuSans-119"/>
     <use x="152.587891" xlink:href="#DejaVuSans-97"/>
     <use x="213.867188" xlink:href="#DejaVuSans-108"/>
     <use x="241.650391" xlink:href="#DejaVuSans-107"/>
     <use x="299.560547" xlink:href="#DejaVuSans-105"/>
     <use x="327.34375" xlink:href="#DejaVuSans-110"/>
     <use x="390.722656" xlink:href="#DejaVuSans-103"/>
     <use x="454.199219" xlink:href="#DejaVuSans-32"/>
     <use x="485.986328" xlink:href="#DejaVuSans-97"/>
     <use x="547.265625" xlink:href="#DejaVuSans-114"/>
     <use x="588.347656" xlink:href="#DejaVuSans-111"/>
     <use x="649.529297" xlink:href="#DejaVuSans-117"/>
     <use x="712.908203" xlink:href="#DejaVuSans-110"/>
     <use x="776.287109" xlink:href="#DejaVuSans-100"/>
     <use x="839.763672" xlink:href="#DejaVuSans-44"/>
     <use x="871.550781" xlink:href="#DejaVuSans-32"/>
    </g>
    <!-- gardening, dancing) -->
    <g transform="translate(518.857134 337.099341)scale(0.1 -0.1)">
     <use xlink:href="#DejaVuSans-103"/>
     <use x="63.476562" xlink:href="#DejaVuSans-97"/>
     <use x="124.755859" xlink:href="#DejaVuSans-114"/>
     <use x="165.853516" xlink:href="#DejaVuSans-100"/>
     <use x="229.330078" xlink:href="#DejaVuSans-101"/>
     <use x="290.853516" xlink:href="#DejaVuSans-110"/>
     <use x="354.232422" xlink:href="#DejaVuSans-105"/>
     <use x="382.015625" xlink:href="#DejaVuSans-110"/>
     <use x="445.394531" xlink:href="#DejaVuSans-103"/>
     <use x="508.871094" xlink:href="#DejaVuSans-44"/>
     <use x="540.658203" xlink:href="#DejaVuSans-32"/>
     <use x="572.445312" xlink:href="#DejaVuSans-100"/>
     <use x="635.921875" xlink:href="#DejaVuSans-97"/>
     <use x="697.201172" xlink:href="#DejaVuSans-110"/>
     <use x="760.580078" xlink:href="#DejaVuSans-99"/>
     <use x="815.560547" xlink:href="#DejaVuSans-105"/>
     <use x="843.34375" xlink:href="#DejaVuSans-110"/>
     <use x="906.722656" xlink:href="#DejaVuSans-103"/>
     <use x="970.199219" xlink:href="#DejaVuSans-41"/>
    </g>
   </g>
   <g id="text_12">
    <!-- ball games -->
    <g transform="translate(379.976976 147.496143)scale(0.1 -0.1)">
     <use xlink:href="#DejaVuSans-98"/>
     <use x="63.476562" xlink:href="#DejaVuSans-97"/>
     <use x="124.755859" xlink:href="#DejaVuSans-108"/>
     <use x="152.539062" xlink:href="#DejaVuSans-108"/>
     <use x="180.322266" xlink:href="#DejaVuSans-32"/>
     <use x="212.109375" xlink:href="#DejaVuSans-103"/>
     <use x="275.585938" xlink:href="#DejaVuSans-97"/>
     <use x="336.865234" xlink:href="#DejaVuSans-109"/>
     <use x="434.277344" xlink:href="#DejaVuSans-101"/>
     <use x="495.800781" xlink:href="#DejaVuSans-115"/>
    </g>
   </g>
   <g id="text_13">
    <!-- other  -->
    <g transform="translate(534.933578 125.100518)scale(0.1 -0.1)">
     <use xlink:href="#DejaVuSans-111"/>
     <use x="61.181641" xlink:href="#DejaVuSans-116"/>
     <use x="100.390625" xlink:href="#DejaVuSans-104"/>
     <use x="163.769531" xlink:href="#DejaVuSans-101"/>
     <use x="225.292969" xlink:href="#DejaVuSans-114"/>
     <use x="266.40625" xlink:href="#DejaVuSans-32"/>
    </g>
    <!--  outdoor sports  -->
    <defs>
     <path d="M 18.109375 8.203125 
L 18.109375 -20.796875 
L 9.078125 -20.796875 
L 9.078125 54.6875 
L 18.109375 54.6875 
L 18.109375 46.390625 
Q 20.953125 51.265625 25.265625 53.625 
Q 29.59375 56 35.59375 56 
Q 45.5625 56 51.78125 48.09375 
Q 58.015625 40.1875 58.015625 27.296875 
Q 58.015625 14.40625 51.78125 6.484375 
Q 45.5625 -1.421875 35.59375 -1.421875 
Q 29.59375 -1.421875 25.265625 0.953125 
Q 20.953125 3.328125 18.109375 8.203125 
z
M 48.6875 27.296875 
Q 48.6875 37.203125 44.609375 42.84375 
Q 40.53125 48.484375 33.40625 48.484375 
Q 26.265625 48.484375 22.1875 42.84375 
Q 18.109375 37.203125 18.109375 27.296875 
Q 18.109375 17.390625 22.1875 11.75 
Q 26.265625 6.109375 33.40625 6.109375 
Q 40.53125 6.109375 44.609375 11.75 
Q 48.6875 17.390625 48.6875 27.296875 
z
" id="DejaVuSans-112"/>
    </defs>
    <g transform="translate(510.080453 136.29833)scale(0.1 -0.1)">
     <use xlink:href="#DejaVuSans-32"/>
     <use x="31.787109" xlink:href="#DejaVuSans-111"/>
     <use x="92.96875" xlink:href="#DejaVuSans-117"/>
     <use x="156.347656" xlink:href="#DejaVuSans-116"/>
     <use x="195.556641" xlink:href="#DejaVuSans-100"/>
     <use x="259.033203" xlink:href="#DejaVuSans-111"/>
     <use x="320.214844" xlink:href="#DejaVuSans-111"/>
     <use x="381.396484" xlink:href="#DejaVuSans-114"/>
     <use x="422.509766" xlink:href="#DejaVuSans-32"/>
     <use x="454.296875" xlink:href="#DejaVuSans-115"/>
     <use x="506.396484" xlink:href="#DejaVuSans-112"/>
     <use x="569.873047" xlink:href="#DejaVuSans-111"/>
     <use x="631.054688" xlink:href="#DejaVuSans-114"/>
     <use x="672.167969" xlink:href="#DejaVuSans-116"/>
     <use x="711.376953" xlink:href="#DejaVuSans-115"/>
     <use x="763.476562" xlink:href="#DejaVuSans-32"/>
    </g>
    <!--  (workout,  -->
    <g transform="translate(522.839828 147.496143)scale(0.1 -0.1)">
     <use xlink:href="#DejaVuSans-32"/>
     <use x="31.787109" xlink:href="#DejaVuSans-40"/>
     <use x="70.800781" xlink:href="#DejaVuSans-119"/>
     <use x="152.587891" xlink:href="#DejaVuSans-111"/>
     <use x="213.769531" xlink:href="#DejaVuSans-114"/>
     <use x="254.882812" xlink:href="#DejaVuSans-107"/>
     <use x="312.746094" xlink:href="#DejaVuSans-111"/>
     <use x="373.927734" xlink:href="#DejaVuSans-117"/>
     <use x="437.306641" xlink:href="#DejaVuSans-116"/>
     <use x="476.515625" xlink:href="#DejaVuSans-44"/>
     <use x="508.302734" xlink:href="#DejaVuSans-32"/>
    </g>
    <!--  frisbeegolf,  -->
    <g transform="translate(518.556235 158.693955)scale(0.1 -0.1)">
     <use xlink:href="#DejaVuSans-32"/>
     <use x="31.787109" xlink:href="#DejaVuSans-102"/>
     <use x="66.992188" xlink:href="#DejaVuSans-114"/>
     <use x="108.105469" xlink:href="#DejaVuSans-105"/>
     <use x="135.888672" xlink:href="#DejaVuSans-115"/>
     <use x="187.988281" xlink:href="#DejaVuSans-98"/>
     <use x="251.464844" xlink:href="#DejaVuSans-101"/>
     <use x="312.988281" xlink:href="#DejaVuSans-101"/>
     <use x="374.511719" xlink:href="#DejaVuSans-103"/>
     <use x="437.988281" xlink:href="#DejaVuSans-111"/>
     <use x="499.169922" xlink:href="#DejaVuSans-108"/>
     <use x="526.953125" xlink:href="#DejaVuSans-102"/>
     <use x="562.158203" xlink:href="#DejaVuSans-44"/>
     <use x="593.945312" xlink:href="#DejaVuSans-32"/>
    </g>
    <!--  orienteering) -->
    <g transform="translate(515.65311 169.891768)scale(0.1 -0.1)">
     <use xlink:href="#DejaVuSans-32"/>
     <use x="31.787109" xlink:href="#DejaVuSans-111"/>
     <use x="92.96875" xlink:href="#DejaVuSans-114"/>
     <use x="134.082031" xlink:href="#DejaVuSans-105"/>
     <use x="161.865234" xlink:href="#DejaVuSans-101"/>
     <use x="223.388672" xlink:href="#DejaVuSans-110"/>
     <use x="286.767578" xlink:href="#DejaVuSans-116"/>
     <use x="325.976562" xlink:href="#DejaVuSans-101"/>
     <use x="387.5" xlink:href="#DejaVuSans-101"/>
     <use x="449.023438" xlink:href="#DejaVuSans-114"/>
     <use x="490.136719" xlink:href="#DejaVuSans-105"/>
     <use x="517.919922" xlink:href="#DejaVuSans-110"/>
     <use x="581.298828" xlink:href="#DejaVuSans-103"/>
     <use x="644.775391" xlink:href="#DejaVuSans-41"/>
    </g>
   </g>
   <g id="text_14">
    <!-- Instagram activities -->
    <defs>
     <path d="M 9.8125 72.90625 
L 19.671875 72.90625 
L 19.671875 0 
L 9.8125 0 
z
" id="DejaVuSans-73"/>
    </defs>
    <g transform="translate(170.73125 81.45085)scale(0.4 -0.4)">
     <use xlink:href="#DejaVuSans-73"/>
     <use x="29.492188" xlink:href="#DejaVuSans-110"/>
     <use x="92.871094" xlink:href="#DejaVuSans-115"/>
     <use x="144.970703" xlink:href="#DejaVuSans-116"/>
     <use x="184.179688" xlink:href="#DejaVuSans-97"/>
     <use x="245.458984" xlink:href="#DejaVuSans-103"/>
     <use x="308.935547" xlink:href="#DejaVuSans-114"/>
     <use x="350.048828" xlink:href="#DejaVuSans-97"/>
     <use x="411.328125" xlink:href="#DejaVuSans-109"/>
     <use x="508.740234" xlink:href="#DejaVuSans-32"/>
     <use x="540.527344" xlink:href="#DejaVuSans-97"/>
     <use x="601.806641" xlink:href="#DejaVuSans-99"/>
     <use x="656.787109" xlink:href="#DejaVuSans-116"/>
     <use x="695.996094" xlink:href="#DejaVuSans-105"/>
     <use x="723.779297" xlink:href="#DejaVuSans-118"/>
     <use x="782.958984" xlink:href="#DejaVuSans-105"/>
     <use x="810.742188" xlink:href="#DejaVuSans-116"/>
     <use x="849.951172" xlink:href="#DejaVuSans-105"/>
     <use x="877.734375" xlink:href="#DejaVuSans-101"/>
     <use x="939.257812" xlink:href="#DejaVuSans-115"/>
    </g>
   </g>
  </g>
 </g>
 <defs>
  <clipPath id="p58d5d20c79">
   <rect height="576.0216" width="558" x="90" y="89.7696"/>
  </clipPath>
 </defs>
</svg>
