<?xml version="1.0" encoding="utf-8" standalone="no"?>
<!DOCTYPE svg PUBLIC "-//W3C//DTD SVG 1.1//EN"
  "http://www.w3.org/Graphics/SVG/1.1/DTD/svg11.dtd">
<!-- Created with matplotlib (https://matplotlib.org/) -->
<svg height="748.08pt" version="1.1" viewBox="0 0 576 748.08" width="576pt" xmlns="http://www.w3.org/2000/svg" xmlns:xlink="http://www.w3.org/1999/xlink">
 <defs>
  <style type="text/css">
*{stroke-linecap:butt;stroke-linejoin:round;}
  </style>
 </defs>
 <g id="figure_1">
  <g id="patch_1">
   <path d="M 0 748.08 
L 576 748.08 
L 576 0 
L 0 0 
z
" style="fill:#ffffff;"/>
  </g>
  <g id="axes_1">
   <g id="patch_2">
    <path clip-path="url(#p137439dd94)" d="M 72 665.7912 
L 213.573403 665.7912 
L 213.573403 370.972334 
L 72 370.972334 
z
" style="fill:#005a24;"/>
   </g>
   <g id="patch_3">
    <path clip-path="url(#p137439dd94)" d="M 72 370.972334 
L 213.573403 370.972334 
L 213.573403 253.755194 
L 72 253.755194 
z
" style="fill:#caeac3;"/>
   </g>
   <g id="patch_4">
    <path clip-path="url(#p137439dd94)" d="M 72 253.755194 
L 213.573403 253.755194 
L 213.573403 89.7696 
L 72 89.7696 
z
" style="fill:#90d18d;"/>
   </g>
   <g id="patch_5">
    <path clip-path="url(#p137439dd94)" d="M 213.573403 665.7912 
L 404.335854 665.7912 
L 404.335854 580.5565 
L 213.573403 580.5565 
z
" style="fill:#cbebc5;"/>
   </g>
   <g id="patch_6">
    <path clip-path="url(#p137439dd94)" d="M 404.335854 665.7912 
L 518.4 665.7912 
L 518.4 580.5565 
L 404.335854 580.5565 
z
" style="fill:#f0f9ec;"/>
   </g>
   <g id="patch_7">
    <path clip-path="url(#p137439dd94)" d="M 213.573403 580.5565 
L 518.4 580.5565 
L 518.4 435.38256 
L 213.573403 435.38256 
z
" style="fill:#00441b;"/>
   </g>
   <g id="patch_8">
    <path clip-path="url(#p137439dd94)" d="M 213.573403 435.38256 
L 290.446936 435.38256 
L 290.446936 326.35639 
L 213.573403 326.35639 
z
" style="fill:#f5fbf2;"/>
   </g>
   <g id="patch_9">
    <path clip-path="url(#p137439dd94)" d="M 213.573403 326.35639 
L 290.446936 326.35639 
L 290.446936 222.781528 
L 213.573403 222.781528 
z
" style="fill:#f6fcf4;"/>
   </g>
   <g id="patch_10">
    <path clip-path="url(#p137439dd94)" d="M 213.573403 222.781528 
L 290.446936 222.781528 
L 290.446936 89.7696 
L 213.573403 89.7696 
z
" style="fill:#edf8ea;"/>
   </g>
   <g id="patch_11">
    <path clip-path="url(#p137439dd94)" d="M 290.446936 435.38256 
L 392.510164 435.38256 
L 392.510164 199.703935 
L 290.446936 199.703935 
z
" style="fill:#87cd86;"/>
   </g>
   <g id="patch_12">
    <path clip-path="url(#p137439dd94)" d="M 392.510164 435.38256 
L 518.4 435.38256 
L 518.4 199.703935 
L 392.510164 199.703935 
z
" style="fill:#4bb062;"/>
   </g>
   <g id="patch_13">
    <path clip-path="url(#p137439dd94)" d="M 290.446936 199.703935 
L 361.348725 199.703935 
L 361.348725 89.7696 
L 290.446936 89.7696 
z
" style="fill:#f7fcf5;"/>
   </g>
   <g id="patch_14">
    <path clip-path="url(#p137439dd94)" d="M 361.348725 199.703935 
L 518.4 199.703935 
L 518.4 89.7696 
L 361.348725 89.7696 
z
" style="fill:#c4e8bd;"/>
   </g>
   <g id="text_1">
    <!-- dog walking -->
    <defs>
     <path d="M 40.234375 0 
L 40.234375 6.546875 
Q 35.296875 -1.171875 25.734375 -1.171875 
Q 19.53125 -1.171875 14.328125 2.25 
Q 9.125 5.671875 6.265625 11.796875 
Q 3.421875 17.921875 3.421875 25.875 
Q 3.421875 33.640625 6 39.96875 
Q 8.59375 46.296875 13.765625 49.65625 
Q 18.953125 53.03125 25.34375 53.03125 
Q 30.03125 53.03125 33.6875 51.046875 
Q 37.359375 49.078125 39.65625 45.90625 
L 39.65625 71.578125 
L 48.390625 71.578125 
L 48.390625 0 
z
M 12.453125 25.875 
Q 12.453125 15.921875 16.640625 10.984375 
Q 20.84375 6.0625 26.5625 6.0625 
Q 32.328125 6.0625 36.34375 10.765625 
Q 40.375 15.484375 40.375 25.140625 
Q 40.375 35.796875 36.265625 40.765625 
Q 32.171875 45.75 26.171875 45.75 
Q 20.3125 45.75 16.375 40.96875 
Q 12.453125 36.1875 12.453125 25.875 
z
" id="ArialMT-100"/>
     <path d="M 3.328125 25.921875 
Q 3.328125 40.328125 11.328125 47.265625 
Q 18.015625 53.03125 27.640625 53.03125 
Q 38.328125 53.03125 45.109375 46.015625 
Q 51.90625 39.015625 51.90625 26.65625 
Q 51.90625 16.65625 48.90625 10.90625 
Q 45.90625 5.171875 40.15625 2 
Q 34.421875 -1.171875 27.640625 -1.171875 
Q 16.75 -1.171875 10.03125 5.8125 
Q 3.328125 12.796875 3.328125 25.921875 
z
M 12.359375 25.921875 
Q 12.359375 15.96875 16.703125 11.015625 
Q 21.046875 6.0625 27.640625 6.0625 
Q 34.1875 6.0625 38.53125 11.03125 
Q 42.875 16.015625 42.875 26.21875 
Q 42.875 35.84375 38.5 40.796875 
Q 34.125 45.75 27.640625 45.75 
Q 21.046875 45.75 16.703125 40.8125 
Q 12.359375 35.890625 12.359375 25.921875 
z
" id="ArialMT-111"/>
     <path d="M 4.984375 -4.296875 
L 13.53125 -5.5625 
Q 14.0625 -9.515625 16.5 -11.328125 
Q 19.78125 -13.765625 25.4375 -13.765625 
Q 31.546875 -13.765625 34.859375 -11.328125 
Q 38.1875 -8.890625 39.359375 -4.5 
Q 40.046875 -1.8125 39.984375 6.78125 
Q 34.234375 0 25.640625 0 
Q 14.9375 0 9.078125 7.71875 
Q 3.21875 15.4375 3.21875 26.21875 
Q 3.21875 33.640625 5.90625 39.90625 
Q 8.59375 46.1875 13.6875 49.609375 
Q 18.796875 53.03125 25.6875 53.03125 
Q 34.859375 53.03125 40.828125 45.609375 
L 40.828125 51.859375 
L 48.921875 51.859375 
L 48.921875 7.03125 
Q 48.921875 -5.078125 46.453125 -10.125 
Q 44 -15.1875 38.640625 -18.109375 
Q 33.296875 -21.046875 25.484375 -21.046875 
Q 16.21875 -21.046875 10.5 -16.875 
Q 4.78125 -12.703125 4.984375 -4.296875 
z
M 12.25 26.859375 
Q 12.25 16.65625 16.296875 11.96875 
Q 20.359375 7.28125 26.46875 7.28125 
Q 32.515625 7.28125 36.609375 11.9375 
Q 40.71875 16.609375 40.71875 26.5625 
Q 40.71875 36.078125 36.5 40.90625 
Q 32.28125 45.75 26.3125 45.75 
Q 20.453125 45.75 16.34375 40.984375 
Q 12.25 36.234375 12.25 26.859375 
z
" id="ArialMT-103"/>
     <path id="ArialMT-32"/>
     <path d="M 16.15625 0 
L 0.296875 51.859375 
L 9.375 51.859375 
L 17.625 21.921875 
L 20.703125 10.796875 
Q 20.90625 11.625 23.390625 21.484375 
L 31.640625 51.859375 
L 40.671875 51.859375 
L 48.4375 21.78125 
L 51.03125 11.859375 
L 54 21.875 
L 62.890625 51.859375 
L 71.4375 51.859375 
L 55.21875 0 
L 46.09375 0 
L 37.84375 31.0625 
L 35.84375 39.890625 
L 25.34375 0 
z
" id="ArialMT-119"/>
     <path d="M 40.4375 6.390625 
Q 35.546875 2.25 31.03125 0.53125 
Q 26.515625 -1.171875 21.34375 -1.171875 
Q 12.796875 -1.171875 8.203125 3 
Q 3.609375 7.171875 3.609375 13.671875 
Q 3.609375 17.484375 5.34375 20.625 
Q 7.078125 23.78125 9.890625 25.6875 
Q 12.703125 27.59375 16.21875 28.5625 
Q 18.796875 29.25 24.03125 29.890625 
Q 34.671875 31.15625 39.703125 32.90625 
Q 39.75 34.71875 39.75 35.203125 
Q 39.75 40.578125 37.25 42.78125 
Q 33.890625 45.75 27.25 45.75 
Q 21.046875 45.75 18.09375 43.578125 
Q 15.140625 41.40625 13.71875 35.890625 
L 5.125 37.0625 
Q 6.296875 42.578125 8.984375 45.96875 
Q 11.671875 49.359375 16.75 51.1875 
Q 21.828125 53.03125 28.515625 53.03125 
Q 35.15625 53.03125 39.296875 51.46875 
Q 43.453125 49.90625 45.40625 47.53125 
Q 47.359375 45.171875 48.140625 41.546875 
Q 48.578125 39.3125 48.578125 33.453125 
L 48.578125 21.734375 
Q 48.578125 9.46875 49.140625 6.21875 
Q 49.703125 2.984375 51.375 0 
L 42.1875 0 
Q 40.828125 2.734375 40.4375 6.390625 
z
M 39.703125 26.03125 
Q 34.90625 24.078125 25.34375 22.703125 
Q 19.921875 21.921875 17.671875 20.9375 
Q 15.4375 19.96875 14.203125 18.09375 
Q 12.984375 16.21875 12.984375 13.921875 
Q 12.984375 10.40625 15.640625 8.0625 
Q 18.3125 5.71875 23.4375 5.71875 
Q 28.515625 5.71875 32.46875 7.9375 
Q 36.421875 10.15625 38.28125 14.015625 
Q 39.703125 17 39.703125 22.796875 
z
" id="ArialMT-97"/>
     <path d="M 6.390625 0 
L 6.390625 71.578125 
L 15.1875 71.578125 
L 15.1875 0 
z
" id="ArialMT-108"/>
     <path d="M 6.640625 0 
L 6.640625 71.578125 
L 15.4375 71.578125 
L 15.4375 30.765625 
L 36.234375 51.859375 
L 47.609375 51.859375 
L 27.78125 32.625 
L 49.609375 0 
L 38.765625 0 
L 21.625 26.515625 
L 15.4375 20.5625 
L 15.4375 0 
z
" id="ArialMT-107"/>
     <path d="M 6.640625 61.46875 
L 6.640625 71.578125 
L 15.4375 71.578125 
L 15.4375 61.46875 
z
M 6.640625 0 
L 6.640625 51.859375 
L 15.4375 51.859375 
L 15.4375 0 
z
" id="ArialMT-105"/>
     <path d="M 6.59375 0 
L 6.59375 51.859375 
L 14.5 51.859375 
L 14.5 44.484375 
Q 20.21875 53.03125 31 53.03125 
Q 35.6875 53.03125 39.625 51.34375 
Q 43.5625 49.65625 45.515625 46.921875 
Q 47.46875 44.1875 48.25 40.4375 
Q 48.734375 37.984375 48.734375 31.890625 
L 48.734375 0 
L 39.9375 0 
L 39.9375 31.546875 
Q 39.9375 36.921875 38.90625 39.578125 
Q 37.890625 42.234375 35.28125 43.8125 
Q 32.671875 45.40625 29.15625 45.40625 
Q 23.53125 45.40625 19.453125 41.84375 
Q 15.375 38.28125 15.375 28.328125 
L 15.375 0 
z
" id="ArialMT-110"/>
    </defs>
    <g style="fill:#262626;" transform="translate(100.539201 522.424267)scale(0.16 -0.16)">
     <use xlink:href="#ArialMT-100"/>
     <use x="55.615234" xlink:href="#ArialMT-111"/>
     <use x="111.230469" xlink:href="#ArialMT-103"/>
     <use x="166.845703" xlink:href="#ArialMT-32"/>
     <use x="194.628906" xlink:href="#ArialMT-119"/>
     <use x="266.845703" xlink:href="#ArialMT-97"/>
     <use x="322.460938" xlink:href="#ArialMT-108"/>
     <use x="344.677734" xlink:href="#ArialMT-107"/>
     <use x="394.677734" xlink:href="#ArialMT-105"/>
     <use x="416.894531" xlink:href="#ArialMT-110"/>
     <use x="472.509766" xlink:href="#ArialMT-103"/>
    </g>
   </g>
   <g id="text_2">
    <!-- jogging -->
    <defs>
     <path d="M 6.546875 61.375 
L 6.546875 71.578125 
L 15.328125 71.578125 
L 15.328125 61.375 
z
M -4.59375 -20.125 
L -2.9375 -12.640625 
Q -0.296875 -13.328125 1.21875 -13.328125 
Q 3.90625 -13.328125 5.21875 -11.546875 
Q 6.546875 -9.765625 6.546875 -2.640625 
L 6.546875 51.859375 
L 15.328125 51.859375 
L 15.328125 -2.828125 
Q 15.328125 -12.40625 12.84375 -16.15625 
Q 9.671875 -21.046875 2.296875 -21.046875 
Q -1.265625 -21.046875 -4.59375 -20.125 
z
" id="ArialMT-106"/>
    </defs>
    <g style="fill:#262626;" transform="translate(116.987951 316.406264)scale(0.16 -0.16)">
     <use xlink:href="#ArialMT-106"/>
     <use x="22.216797" xlink:href="#ArialMT-111"/>
     <use x="77.832031" xlink:href="#ArialMT-103"/>
     <use x="133.447266" xlink:href="#ArialMT-103"/>
     <use x="189.0625" xlink:href="#ArialMT-105"/>
     <use x="211.279297" xlink:href="#ArialMT-110"/>
     <use x="266.894531" xlink:href="#ArialMT-103"/>
    </g>
   </g>
   <g id="text_3">
    <!-- cycling -->
    <defs>
     <path d="M 40.4375 19 
L 49.078125 17.875 
Q 47.65625 8.9375 41.8125 3.875 
Q 35.984375 -1.171875 27.484375 -1.171875 
Q 16.84375 -1.171875 10.375 5.78125 
Q 3.90625 12.75 3.90625 25.734375 
Q 3.90625 34.125 6.6875 40.421875 
Q 9.46875 46.734375 15.15625 49.875 
Q 20.84375 53.03125 27.546875 53.03125 
Q 35.984375 53.03125 41.359375 48.75 
Q 46.734375 44.484375 48.25 36.625 
L 39.703125 35.296875 
Q 38.484375 40.53125 35.375 43.15625 
Q 32.28125 45.796875 27.875 45.796875 
Q 21.234375 45.796875 17.078125 41.03125 
Q 12.9375 36.28125 12.9375 25.984375 
Q 12.9375 15.53125 16.9375 10.796875 
Q 20.953125 6.0625 27.390625 6.0625 
Q 32.5625 6.0625 36.03125 9.234375 
Q 39.5 12.40625 40.4375 19 
z
" id="ArialMT-99"/>
     <path d="M 6.203125 -19.96875 
L 5.21875 -11.71875 
Q 8.109375 -12.5 10.25 -12.5 
Q 13.1875 -12.5 14.9375 -11.515625 
Q 16.703125 -10.546875 17.828125 -8.796875 
Q 18.65625 -7.46875 20.515625 -2.25 
Q 20.75 -1.515625 21.296875 -0.09375 
L 1.609375 51.859375 
L 11.078125 51.859375 
L 21.875 21.828125 
Q 23.96875 16.109375 25.640625 9.8125 
Q 27.15625 15.875 29.25 21.625 
L 40.328125 51.859375 
L 49.125 51.859375 
L 29.390625 -0.875 
Q 26.21875 -9.421875 24.46875 -12.640625 
Q 22.125 -17 19.09375 -19.015625 
Q 16.0625 -21.046875 11.859375 -21.046875 
Q 9.328125 -21.046875 6.203125 -19.96875 
z
" id="ArialMT-121"/>
    </defs>
    <g style="fill:#262626;" transform="translate(118.334201 175.804897)scale(0.16 -0.16)">
     <use xlink:href="#ArialMT-99"/>
     <use x="50" xlink:href="#ArialMT-121"/>
     <use x="100" xlink:href="#ArialMT-99"/>
     <use x="150" xlink:href="#ArialMT-108"/>
     <use x="172.216797" xlink:href="#ArialMT-105"/>
     <use x="194.433594" xlink:href="#ArialMT-110"/>
     <use x="250.048828" xlink:href="#ArialMT-103"/>
    </g>
   </g>
   <g id="text_4">
    <!--  -->
    <g style="fill:#262626;" transform="translate(308.954628 601.5041)scale(0.16 -0.16)"/>
    <!-- water activities  -->
    <defs>
     <path d="M 25.78125 7.859375 
L 27.046875 0.09375 
Q 23.34375 -0.6875 20.40625 -0.6875 
Q 15.625 -0.6875 12.984375 0.828125 
Q 10.359375 2.34375 9.28125 4.8125 
Q 8.203125 7.28125 8.203125 15.1875 
L 8.203125 45.015625 
L 1.765625 45.015625 
L 1.765625 51.859375 
L 8.203125 51.859375 
L 8.203125 64.703125 
L 16.9375 69.96875 
L 16.9375 51.859375 
L 25.78125 51.859375 
L 25.78125 45.015625 
L 16.9375 45.015625 
L 16.9375 14.703125 
Q 16.9375 10.9375 17.40625 9.859375 
Q 17.875 8.796875 18.921875 8.15625 
Q 19.96875 7.515625 21.921875 7.515625 
Q 23.390625 7.515625 25.78125 7.859375 
z
" id="ArialMT-116"/>
     <path d="M 42.09375 16.703125 
L 51.171875 15.578125 
Q 49.03125 7.625 43.21875 3.21875 
Q 37.40625 -1.171875 28.375 -1.171875 
Q 17 -1.171875 10.328125 5.828125 
Q 3.65625 12.84375 3.65625 25.484375 
Q 3.65625 38.578125 10.390625 45.796875 
Q 17.140625 53.03125 27.875 53.03125 
Q 38.28125 53.03125 44.875 45.953125 
Q 51.46875 38.875 51.46875 26.03125 
Q 51.46875 25.25 51.421875 23.6875 
L 12.75 23.6875 
Q 13.234375 15.140625 17.578125 10.59375 
Q 21.921875 6.0625 28.421875 6.0625 
Q 33.25 6.0625 36.671875 8.59375 
Q 40.09375 11.140625 42.09375 16.703125 
z
M 13.234375 30.90625 
L 42.1875 30.90625 
Q 41.609375 37.453125 38.875 40.71875 
Q 34.671875 45.796875 27.984375 45.796875 
Q 21.921875 45.796875 17.796875 41.75 
Q 13.671875 37.703125 13.234375 30.90625 
z
" id="ArialMT-101"/>
     <path d="M 6.5 0 
L 6.5 51.859375 
L 14.40625 51.859375 
L 14.40625 44 
Q 17.4375 49.515625 20 51.265625 
Q 22.5625 53.03125 25.640625 53.03125 
Q 30.078125 53.03125 34.671875 50.203125 
L 31.640625 42.046875 
Q 28.421875 43.953125 25.203125 43.953125 
Q 22.3125 43.953125 20.015625 42.21875 
Q 17.71875 40.484375 16.75 37.40625 
Q 15.28125 32.71875 15.28125 27.15625 
L 15.28125 0 
z
" id="ArialMT-114"/>
     <path d="M 21 0 
L 1.265625 51.859375 
L 10.546875 51.859375 
L 21.6875 20.796875 
Q 23.484375 15.765625 25 10.359375 
Q 26.171875 14.453125 28.265625 20.21875 
L 39.796875 51.859375 
L 48.828125 51.859375 
L 29.203125 0 
z
" id="ArialMT-118"/>
     <path d="M 3.078125 15.484375 
L 11.765625 16.84375 
Q 12.5 11.625 15.84375 8.84375 
Q 19.1875 6.0625 25.203125 6.0625 
Q 31.25 6.0625 34.171875 8.515625 
Q 37.109375 10.984375 37.109375 14.3125 
Q 37.109375 17.28125 34.515625 19 
Q 32.71875 20.171875 25.53125 21.96875 
Q 15.875 24.421875 12.140625 26.203125 
Q 8.40625 27.984375 6.46875 31.125 
Q 4.546875 34.28125 4.546875 38.09375 
Q 4.546875 41.546875 6.125 44.5 
Q 7.71875 47.46875 10.453125 49.421875 
Q 12.5 50.921875 16.03125 51.96875 
Q 19.578125 53.03125 23.640625 53.03125 
Q 29.734375 53.03125 34.34375 51.265625 
Q 38.96875 49.515625 41.15625 46.5 
Q 43.359375 43.5 44.1875 38.484375 
L 35.59375 37.3125 
Q 35.015625 41.3125 32.203125 43.546875 
Q 29.390625 45.796875 24.265625 45.796875 
Q 18.21875 45.796875 15.625 43.796875 
Q 13.03125 41.796875 13.03125 39.109375 
Q 13.03125 37.40625 14.109375 36.03125 
Q 15.1875 34.625 17.484375 33.6875 
Q 18.796875 33.203125 25.25 31.453125 
Q 34.578125 28.953125 38.25 27.359375 
Q 41.9375 25.78125 44.03125 22.75 
Q 46.140625 19.734375 46.140625 15.234375 
Q 46.140625 10.84375 43.578125 6.953125 
Q 41.015625 3.078125 36.171875 0.953125 
Q 31.34375 -1.171875 25.25 -1.171875 
Q 15.140625 -1.171875 9.84375 3.03125 
Q 4.546875 7.234375 3.078125 15.484375 
z
" id="ArialMT-115"/>
    </defs>
    <g style="fill:#262626;" transform="translate(254.273378 618.4271)scale(0.16 -0.16)">
     <use xlink:href="#ArialMT-119"/>
     <use x="72.216797" xlink:href="#ArialMT-97"/>
     <use x="127.832031" xlink:href="#ArialMT-116"/>
     <use x="155.615234" xlink:href="#ArialMT-101"/>
     <use x="211.230469" xlink:href="#ArialMT-114"/>
     <use x="244.53125" xlink:href="#ArialMT-32"/>
     <use x="272.314453" xlink:href="#ArialMT-97"/>
     <use x="327.929688" xlink:href="#ArialMT-99"/>
     <use x="377.929688" xlink:href="#ArialMT-116"/>
     <use x="405.712891" xlink:href="#ArialMT-105"/>
     <use x="427.929688" xlink:href="#ArialMT-118"/>
     <use x="477.929688" xlink:href="#ArialMT-105"/>
     <use x="500.146484" xlink:href="#ArialMT-116"/>
     <use x="527.929688" xlink:href="#ArialMT-105"/>
     <use x="550.146484" xlink:href="#ArialMT-101"/>
     <use x="605.761719" xlink:href="#ArialMT-115"/>
     <use x="655.761719" xlink:href="#ArialMT-32"/>
    </g>
    <!--  (SUP, fishing,   -->
    <defs>
     <path d="M 23.390625 -21.046875 
Q 16.109375 -11.859375 11.078125 0.4375 
Q 6.0625 12.75 6.0625 25.921875 
Q 6.0625 37.546875 9.8125 48.1875 
Q 14.203125 60.546875 23.390625 72.796875 
L 29.6875 72.796875 
Q 23.78125 62.640625 21.875 58.296875 
Q 18.890625 51.5625 17.1875 44.234375 
Q 15.09375 35.109375 15.09375 25.875 
Q 15.09375 2.390625 29.6875 -21.046875 
z
" id="ArialMT-40"/>
     <path d="M 4.5 23 
L 13.421875 23.78125 
Q 14.0625 18.40625 16.375 14.96875 
Q 18.703125 11.53125 23.578125 9.40625 
Q 28.46875 7.28125 34.578125 7.28125 
Q 39.984375 7.28125 44.140625 8.890625 
Q 48.296875 10.5 50.3125 13.296875 
Q 52.34375 16.109375 52.34375 19.4375 
Q 52.34375 22.796875 50.390625 25.3125 
Q 48.4375 27.828125 43.953125 29.546875 
Q 41.0625 30.671875 31.203125 33.03125 
Q 21.34375 35.40625 17.390625 37.5 
Q 12.25 40.1875 9.734375 44.15625 
Q 7.234375 48.140625 7.234375 53.078125 
Q 7.234375 58.5 10.296875 63.203125 
Q 13.375 67.921875 19.28125 70.359375 
Q 25.203125 72.796875 32.421875 72.796875 
Q 40.375 72.796875 46.453125 70.234375 
Q 52.546875 67.671875 55.8125 62.6875 
Q 59.078125 57.71875 59.328125 51.421875 
L 50.25 50.734375 
Q 49.515625 57.515625 45.28125 60.984375 
Q 41.0625 64.453125 32.8125 64.453125 
Q 24.21875 64.453125 20.28125 61.296875 
Q 16.359375 58.15625 16.359375 53.71875 
Q 16.359375 49.859375 19.140625 47.359375 
Q 21.875 44.875 33.421875 42.265625 
Q 44.96875 39.65625 49.265625 37.703125 
Q 55.515625 34.8125 58.484375 30.390625 
Q 61.46875 25.984375 61.46875 20.21875 
Q 61.46875 14.5 58.203125 9.4375 
Q 54.9375 4.390625 48.796875 1.578125 
Q 42.671875 -1.21875 35.015625 -1.21875 
Q 25.296875 -1.21875 18.71875 1.609375 
Q 12.15625 4.4375 8.421875 10.125 
Q 4.6875 15.828125 4.5 23 
z
" id="ArialMT-83"/>
     <path d="M 54.6875 71.578125 
L 64.15625 71.578125 
L 64.15625 30.21875 
Q 64.15625 19.4375 61.71875 13.078125 
Q 59.28125 6.734375 52.90625 2.75 
Q 46.53125 -1.21875 36.1875 -1.21875 
Q 26.125 -1.21875 19.71875 2.25 
Q 13.328125 5.71875 10.59375 12.28125 
Q 7.859375 18.84375 7.859375 30.21875 
L 7.859375 71.578125 
L 17.328125 71.578125 
L 17.328125 30.28125 
Q 17.328125 20.953125 19.0625 16.53125 
Q 20.796875 12.109375 25.015625 9.71875 
Q 29.25 7.328125 35.359375 7.328125 
Q 45.796875 7.328125 50.234375 12.0625 
Q 54.6875 16.796875 54.6875 30.28125 
z
" id="ArialMT-85"/>
     <path d="M 7.71875 0 
L 7.71875 71.578125 
L 34.71875 71.578125 
Q 41.84375 71.578125 45.609375 70.90625 
Q 50.875 70.015625 54.4375 67.546875 
Q 58.015625 65.09375 60.1875 60.640625 
Q 62.359375 56.203125 62.359375 50.875 
Q 62.359375 41.75 56.546875 35.421875 
Q 50.734375 29.109375 35.546875 29.109375 
L 17.1875 29.109375 
L 17.1875 0 
z
M 17.1875 37.546875 
L 35.6875 37.546875 
Q 44.875 37.546875 48.734375 40.96875 
Q 52.59375 44.390625 52.59375 50.59375 
Q 52.59375 55.078125 50.3125 58.265625 
Q 48.046875 61.46875 44.34375 62.5 
Q 41.9375 63.140625 35.5 63.140625 
L 17.1875 63.140625 
z
" id="ArialMT-80"/>
     <path d="M 8.890625 0 
L 8.890625 10.015625 
L 18.890625 10.015625 
L 18.890625 0 
Q 18.890625 -5.515625 16.9375 -8.90625 
Q 14.984375 -12.3125 10.75 -14.15625 
L 8.296875 -10.40625 
Q 11.078125 -9.1875 12.390625 -6.8125 
Q 13.71875 -4.4375 13.875 0 
z
" id="ArialMT-44"/>
     <path d="M 8.6875 0 
L 8.6875 45.015625 
L 0.921875 45.015625 
L 0.921875 51.859375 
L 8.6875 51.859375 
L 8.6875 57.375 
Q 8.6875 62.59375 9.625 65.140625 
Q 10.890625 68.5625 14.078125 70.671875 
Q 17.28125 72.796875 23.046875 72.796875 
Q 26.765625 72.796875 31.25 71.921875 
L 29.9375 64.265625 
Q 27.203125 64.75 24.75 64.75 
Q 20.75 64.75 19.09375 63.03125 
Q 17.4375 61.328125 17.4375 56.640625 
L 17.4375 51.859375 
L 27.546875 51.859375 
L 27.546875 45.015625 
L 17.4375 45.015625 
L 17.4375 0 
z
" id="ArialMT-102"/>
     <path d="M 6.59375 0 
L 6.59375 71.578125 
L 15.375 71.578125 
L 15.375 45.90625 
Q 21.53125 53.03125 30.90625 53.03125 
Q 36.671875 53.03125 40.921875 50.75 
Q 45.171875 48.484375 47 44.484375 
Q 48.828125 40.484375 48.828125 32.859375 
L 48.828125 0 
L 40.046875 0 
L 40.046875 32.859375 
Q 40.046875 39.453125 37.1875 42.453125 
Q 34.328125 45.453125 29.109375 45.453125 
Q 25.203125 45.453125 21.75 43.421875 
Q 18.3125 41.40625 16.84375 37.9375 
Q 15.375 34.46875 15.375 28.375 
L 15.375 0 
z
" id="ArialMT-104"/>
    </defs>
    <g style="fill:#262626;" transform="translate(253.397128 635.5841)scale(0.16 -0.16)">
     <use xlink:href="#ArialMT-32"/>
     <use x="27.783203" xlink:href="#ArialMT-40"/>
     <use x="61.083984" xlink:href="#ArialMT-83"/>
     <use x="127.783203" xlink:href="#ArialMT-85"/>
     <use x="200" xlink:href="#ArialMT-80"/>
     <use x="266.511719" xlink:href="#ArialMT-44"/>
     <use x="294.294922" xlink:href="#ArialMT-32"/>
     <use x="322.078125" xlink:href="#ArialMT-102"/>
     <use x="349.861328" xlink:href="#ArialMT-105"/>
     <use x="372.078125" xlink:href="#ArialMT-115"/>
     <use x="422.078125" xlink:href="#ArialMT-104"/>
     <use x="477.693359" xlink:href="#ArialMT-105"/>
     <use x="499.910156" xlink:href="#ArialMT-110"/>
     <use x="555.525391" xlink:href="#ArialMT-103"/>
     <use x="611.140625" xlink:href="#ArialMT-44"/>
     <use x="638.923828" xlink:href="#ArialMT-32"/>
     <use x="666.707031" xlink:href="#ArialMT-32"/>
    </g>
    <!--  kayaking) -->
    <defs>
     <path d="M 12.359375 -21.046875 
L 6.0625 -21.046875 
Q 20.65625 2.390625 20.65625 25.875 
Q 20.65625 35.0625 18.5625 44.09375 
Q 16.890625 51.421875 13.921875 58.15625 
Q 12.015625 62.546875 6.0625 72.796875 
L 12.359375 72.796875 
Q 21.53125 60.546875 25.921875 48.1875 
Q 29.6875 37.546875 29.6875 25.921875 
Q 29.6875 12.75 24.625 0.4375 
Q 19.578125 -11.859375 12.359375 -21.046875 
z
" id="ArialMT-41"/>
    </defs>
    <g style="fill:#262626;" transform="translate(272.495878 652.9286)scale(0.16 -0.16)">
     <use xlink:href="#ArialMT-32"/>
     <use x="27.783203" xlink:href="#ArialMT-107"/>
     <use x="77.783203" xlink:href="#ArialMT-97"/>
     <use x="133.398438" xlink:href="#ArialMT-121"/>
     <use x="183.398438" xlink:href="#ArialMT-97"/>
     <use x="239.013672" xlink:href="#ArialMT-107"/>
     <use x="289.013672" xlink:href="#ArialMT-105"/>
     <use x="311.230469" xlink:href="#ArialMT-110"/>
     <use x="366.845703" xlink:href="#ArialMT-103"/>
     <use x="422.460938" xlink:href="#ArialMT-41"/>
    </g>
   </g>
   <g id="text_5">
    <!-- winter activities  -->
    <g style="fill:#262626;" transform="translate(404.909177 609.9656)scale(0.16 -0.16)">
     <use xlink:href="#ArialMT-119"/>
     <use x="72.216797" xlink:href="#ArialMT-105"/>
     <use x="94.433594" xlink:href="#ArialMT-110"/>
     <use x="150.048828" xlink:href="#ArialMT-116"/>
     <use x="177.832031" xlink:href="#ArialMT-101"/>
     <use x="233.447266" xlink:href="#ArialMT-114"/>
     <use x="266.748047" xlink:href="#ArialMT-32"/>
     <use x="294.53125" xlink:href="#ArialMT-97"/>
     <use x="350.146484" xlink:href="#ArialMT-99"/>
     <use x="400.146484" xlink:href="#ArialMT-116"/>
     <use x="427.929688" xlink:href="#ArialMT-105"/>
     <use x="450.146484" xlink:href="#ArialMT-118"/>
     <use x="500.146484" xlink:href="#ArialMT-105"/>
     <use x="522.363281" xlink:href="#ArialMT-116"/>
     <use x="550.146484" xlink:href="#ArialMT-105"/>
     <use x="572.363281" xlink:href="#ArialMT-101"/>
     <use x="627.978516" xlink:href="#ArialMT-115"/>
     <use x="677.978516" xlink:href="#ArialMT-32"/>
    </g>
    <!--  (cross-country skiing,  -->
    <defs>
     <path d="M 3.171875 21.484375 
L 3.171875 30.328125 
L 30.171875 30.328125 
L 30.171875 21.484375 
z
" id="ArialMT-45"/>
     <path d="M 40.578125 0 
L 40.578125 7.625 
Q 34.515625 -1.171875 24.125 -1.171875 
Q 19.53125 -1.171875 15.546875 0.578125 
Q 11.578125 2.34375 9.640625 5 
Q 7.71875 7.671875 6.9375 11.53125 
Q 6.390625 14.109375 6.390625 19.734375 
L 6.390625 51.859375 
L 15.1875 51.859375 
L 15.1875 23.09375 
Q 15.1875 16.21875 15.71875 13.8125 
Q 16.546875 10.359375 19.234375 8.375 
Q 21.921875 6.390625 25.875 6.390625 
Q 29.828125 6.390625 33.296875 8.421875 
Q 36.765625 10.453125 38.203125 13.9375 
Q 39.65625 17.4375 39.65625 24.078125 
L 39.65625 51.859375 
L 48.4375 51.859375 
L 48.4375 0 
z
" id="ArialMT-117"/>
    </defs>
    <g style="fill:#262626;" transform="translate(381.352927 627.1226)scale(0.16 -0.16)">
     <use xlink:href="#ArialMT-32"/>
     <use x="27.783203" xlink:href="#ArialMT-40"/>
     <use x="61.083984" xlink:href="#ArialMT-99"/>
     <use x="111.083984" xlink:href="#ArialMT-114"/>
     <use x="144.384766" xlink:href="#ArialMT-111"/>
     <use x="200" xlink:href="#ArialMT-115"/>
     <use x="250" xlink:href="#ArialMT-115"/>
     <use x="300" xlink:href="#ArialMT-45"/>
     <use x="333.300781" xlink:href="#ArialMT-99"/>
     <use x="383.300781" xlink:href="#ArialMT-111"/>
     <use x="438.916016" xlink:href="#ArialMT-117"/>
     <use x="494.53125" xlink:href="#ArialMT-110"/>
     <use x="550.146484" xlink:href="#ArialMT-116"/>
     <use x="577.929688" xlink:href="#ArialMT-114"/>
     <use x="611.230469" xlink:href="#ArialMT-121"/>
     <use x="661.230469" xlink:href="#ArialMT-32"/>
     <use x="689.013672" xlink:href="#ArialMT-115"/>
     <use x="739.013672" xlink:href="#ArialMT-107"/>
     <use x="789.013672" xlink:href="#ArialMT-105"/>
     <use x="811.230469" xlink:href="#ArialMT-105"/>
     <use x="833.447266" xlink:href="#ArialMT-110"/>
     <use x="889.0625" xlink:href="#ArialMT-103"/>
     <use x="944.677734" xlink:href="#ArialMT-44"/>
     <use x="972.460938" xlink:href="#ArialMT-32"/>
    </g>
    <!--  ice-skating, sledding)  -->
    <g style="fill:#262626;" transform="translate(381.779177 644.4671)scale(0.16 -0.16)">
     <use xlink:href="#ArialMT-32"/>
     <use x="27.783203" xlink:href="#ArialMT-105"/>
     <use x="50" xlink:href="#ArialMT-99"/>
     <use x="100" xlink:href="#ArialMT-101"/>
     <use x="155.615234" xlink:href="#ArialMT-45"/>
     <use x="188.916016" xlink:href="#ArialMT-115"/>
     <use x="238.916016" xlink:href="#ArialMT-107"/>
     <use x="288.916016" xlink:href="#ArialMT-97"/>
     <use x="344.53125" xlink:href="#ArialMT-116"/>
     <use x="372.314453" xlink:href="#ArialMT-105"/>
     <use x="394.53125" xlink:href="#ArialMT-110"/>
     <use x="450.146484" xlink:href="#ArialMT-103"/>
     <use x="505.761719" xlink:href="#ArialMT-44"/>
     <use x="533.544922" xlink:href="#ArialMT-32"/>
     <use x="561.328125" xlink:href="#ArialMT-115"/>
     <use x="611.328125" xlink:href="#ArialMT-108"/>
     <use x="633.544922" xlink:href="#ArialMT-101"/>
     <use x="689.160156" xlink:href="#ArialMT-100"/>
     <use x="744.775391" xlink:href="#ArialMT-100"/>
     <use x="800.390625" xlink:href="#ArialMT-105"/>
     <use x="822.607422" xlink:href="#ArialMT-110"/>
     <use x="878.222656" xlink:href="#ArialMT-103"/>
     <use x="933.837891" xlink:href="#ArialMT-41"/>
     <use x="967.138672" xlink:href="#ArialMT-32"/>
    </g>
   </g>
   <g id="text_6">
    <!-- eating/drinking -->
    <defs>
     <path d="M 0 -1.21875 
L 20.75 72.796875 
L 27.78125 72.796875 
L 7.078125 -1.21875 
z
" id="ArialMT-47"/>
    </defs>
    <g style="fill:#262626;" transform="translate(313.955451 512.10953)scale(0.16 -0.16)">
     <use xlink:href="#ArialMT-101"/>
     <use x="55.615234" xlink:href="#ArialMT-97"/>
     <use x="111.230469" xlink:href="#ArialMT-116"/>
     <use x="139.013672" xlink:href="#ArialMT-105"/>
     <use x="161.230469" xlink:href="#ArialMT-110"/>
     <use x="216.845703" xlink:href="#ArialMT-103"/>
     <use x="272.460938" xlink:href="#ArialMT-47"/>
     <use x="300.244141" xlink:href="#ArialMT-100"/>
     <use x="355.859375" xlink:href="#ArialMT-114"/>
     <use x="389.160156" xlink:href="#ArialMT-105"/>
     <use x="411.376953" xlink:href="#ArialMT-110"/>
     <use x="466.992188" xlink:href="#ArialMT-107"/>
     <use x="516.992188" xlink:href="#ArialMT-105"/>
     <use x="539.208984" xlink:href="#ArialMT-110"/>
     <use x="594.824219" xlink:href="#ArialMT-103"/>
    </g>
   </g>
   <g id="text_7">
    <!-- horse riding -->
    <g style="fill:#262626;" transform="translate(210.212669 384.911975)scale(0.16 -0.16)">
     <use xlink:href="#ArialMT-104"/>
     <use x="55.615234" xlink:href="#ArialMT-111"/>
     <use x="111.230469" xlink:href="#ArialMT-114"/>
     <use x="144.53125" xlink:href="#ArialMT-115"/>
     <use x="194.53125" xlink:href="#ArialMT-101"/>
     <use x="250.146484" xlink:href="#ArialMT-32"/>
     <use x="277.929688" xlink:href="#ArialMT-114"/>
     <use x="311.230469" xlink:href="#ArialMT-105"/>
     <use x="333.447266" xlink:href="#ArialMT-100"/>
     <use x="389.0625" xlink:href="#ArialMT-105"/>
     <use x="411.279297" xlink:href="#ArialMT-110"/>
     <use x="466.894531" xlink:href="#ArialMT-103"/>
    </g>
   </g>
   <g id="text_8">
    <!-- golf -->
    <g style="fill:#262626;" transform="translate(239.112669 278.708959)scale(0.16 -0.16)">
     <use xlink:href="#ArialMT-103"/>
     <use x="55.615234" xlink:href="#ArialMT-111"/>
     <use x="111.230469" xlink:href="#ArialMT-108"/>
     <use x="133.447266" xlink:href="#ArialMT-102"/>
    </g>
   </g>
   <g id="text_9">
    <!-- swimming -->
    <defs>
     <path d="M 6.59375 0 
L 6.59375 51.859375 
L 14.453125 51.859375 
L 14.453125 44.578125 
Q 16.890625 48.390625 20.9375 50.703125 
Q 25 53.03125 30.171875 53.03125 
Q 35.9375 53.03125 39.625 50.640625 
Q 43.3125 48.25 44.828125 43.953125 
Q 50.984375 53.03125 60.84375 53.03125 
Q 68.5625 53.03125 72.703125 48.75 
Q 76.859375 44.484375 76.859375 35.59375 
L 76.859375 0 
L 68.109375 0 
L 68.109375 32.671875 
Q 68.109375 37.9375 67.25 40.25 
Q 66.40625 42.578125 64.15625 43.984375 
Q 61.921875 45.40625 58.890625 45.40625 
Q 53.421875 45.40625 49.796875 41.765625 
Q 46.1875 38.140625 46.1875 30.125 
L 46.1875 0 
L 37.40625 0 
L 37.40625 33.6875 
Q 37.40625 39.546875 35.25 42.46875 
Q 33.109375 45.40625 28.21875 45.40625 
Q 24.515625 45.40625 21.359375 43.453125 
Q 18.21875 41.5 16.796875 37.734375 
Q 15.375 33.984375 15.375 26.90625 
L 15.375 0 
z
" id="ArialMT-109"/>
    </defs>
    <g style="fill:#262626;" transform="translate(216.452669 160.318064)scale(0.16 -0.16)">
     <use xlink:href="#ArialMT-115"/>
     <use x="50" xlink:href="#ArialMT-119"/>
     <use x="122.216797" xlink:href="#ArialMT-105"/>
     <use x="144.433594" xlink:href="#ArialMT-109"/>
     <use x="227.734375" xlink:href="#ArialMT-109"/>
     <use x="311.035156" xlink:href="#ArialMT-105"/>
     <use x="333.251953" xlink:href="#ArialMT-110"/>
     <use x="388.867188" xlink:href="#ArialMT-103"/>
    </g>
   </g>
   <g id="text_10">
    <!-- Organized  -->
    <defs>
     <path d="M 4.828125 34.859375 
Q 4.828125 52.6875 14.390625 62.765625 
Q 23.96875 72.859375 39.109375 72.859375 
Q 49.03125 72.859375 56.984375 68.109375 
Q 64.9375 63.375 69.109375 54.90625 
Q 73.296875 46.4375 73.296875 35.6875 
Q 73.296875 24.8125 68.890625 16.21875 
Q 64.5 7.625 56.4375 3.203125 
Q 48.390625 -1.21875 39.0625 -1.21875 
Q 28.953125 -1.21875 20.984375 3.65625 
Q 13.03125 8.546875 8.921875 16.984375 
Q 4.828125 25.4375 4.828125 34.859375 
z
M 14.59375 34.71875 
Q 14.59375 21.78125 21.546875 14.328125 
Q 28.515625 6.890625 39.015625 6.890625 
Q 49.703125 6.890625 56.609375 14.40625 
Q 63.53125 21.921875 63.53125 35.75 
Q 63.53125 44.484375 60.578125 51 
Q 57.625 57.515625 51.921875 61.109375 
Q 46.234375 64.703125 39.15625 64.703125 
Q 29.109375 64.703125 21.84375 57.78125 
Q 14.59375 50.875 14.59375 34.71875 
z
" id="ArialMT-79"/>
     <path d="M 1.953125 0 
L 1.953125 7.125 
L 34.96875 45.015625 
Q 29.34375 44.734375 25.046875 44.734375 
L 3.90625 44.734375 
L 3.90625 51.859375 
L 46.296875 51.859375 
L 46.296875 46.046875 
L 18.21875 13.140625 
L 12.796875 7.125 
Q 18.703125 7.5625 23.875 7.5625 
L 47.859375 7.5625 
L 47.859375 0 
z
" id="ArialMT-122"/>
    </defs>
    <g style="fill:#262626;" transform="translate(302.34855 304.671498)scale(0.16 -0.16)">
     <use xlink:href="#ArialMT-79"/>
     <use x="77.783203" xlink:href="#ArialMT-114"/>
     <use x="111.083984" xlink:href="#ArialMT-103"/>
     <use x="166.699219" xlink:href="#ArialMT-97"/>
     <use x="222.314453" xlink:href="#ArialMT-110"/>
     <use x="277.929688" xlink:href="#ArialMT-105"/>
     <use x="300.146484" xlink:href="#ArialMT-122"/>
     <use x="350.146484" xlink:href="#ArialMT-101"/>
     <use x="405.761719" xlink:href="#ArialMT-100"/>
     <use x="461.376953" xlink:href="#ArialMT-32"/>
    </g>
    <!--  tree-climbing  -->
    <defs>
     <path d="M 14.703125 0 
L 6.546875 0 
L 6.546875 71.578125 
L 15.328125 71.578125 
L 15.328125 46.046875 
Q 20.90625 53.03125 29.546875 53.03125 
Q 34.328125 53.03125 38.59375 51.09375 
Q 42.875 49.171875 45.625 45.671875 
Q 48.390625 42.1875 49.953125 37.25 
Q 51.515625 32.328125 51.515625 26.703125 
Q 51.515625 13.375 44.921875 6.09375 
Q 38.328125 -1.171875 29.109375 -1.171875 
Q 19.921875 -1.171875 14.703125 6.5 
z
M 14.59375 26.3125 
Q 14.59375 17 17.140625 12.84375 
Q 21.296875 6.0625 28.375 6.0625 
Q 34.125 6.0625 38.328125 11.0625 
Q 42.53125 16.0625 42.53125 25.984375 
Q 42.53125 36.140625 38.5 40.96875 
Q 34.46875 45.796875 28.765625 45.796875 
Q 23 45.796875 18.796875 40.796875 
Q 14.59375 35.796875 14.59375 26.3125 
z
" id="ArialMT-98"/>
    </defs>
    <g style="fill:#262626;" transform="translate(291.24355 321.781998)scale(0.16 -0.16)">
     <use xlink:href="#ArialMT-32"/>
     <use x="27.783203" xlink:href="#ArialMT-116"/>
     <use x="55.566406" xlink:href="#ArialMT-114"/>
     <use x="88.867188" xlink:href="#ArialMT-101"/>
     <use x="144.482422" xlink:href="#ArialMT-101"/>
     <use x="200.097656" xlink:href="#ArialMT-45"/>
     <use x="233.398438" xlink:href="#ArialMT-99"/>
     <use x="283.398438" xlink:href="#ArialMT-108"/>
     <use x="305.615234" xlink:href="#ArialMT-105"/>
     <use x="327.832031" xlink:href="#ArialMT-109"/>
     <use x="411.132812" xlink:href="#ArialMT-98"/>
     <use x="466.748047" xlink:href="#ArialMT-105"/>
     <use x="488.964844" xlink:href="#ArialMT-110"/>
     <use x="544.580078" xlink:href="#ArialMT-103"/>
     <use x="600.195312" xlink:href="#ArialMT-32"/>
    </g>
    <!--  -->
    <g style="fill:#262626;" transform="translate(341.47855 338.892498)scale(0.16 -0.16)"/>
   </g>
   <g id="text_11">
    <!-- other  -->
    <g style="fill:#262626;" transform="translate(435.000082 295.873498)scale(0.16 -0.16)">
     <use xlink:href="#ArialMT-111"/>
     <use x="55.615234" xlink:href="#ArialMT-116"/>
     <use x="83.398438" xlink:href="#ArialMT-104"/>
     <use x="139.013672" xlink:href="#ArialMT-101"/>
     <use x="194.628906" xlink:href="#ArialMT-114"/>
     <use x="227.929688" xlink:href="#ArialMT-32"/>
    </g>
    <!--  outdoor activities  -->
    <g style="fill:#262626;" transform="translate(390.982582 312.796498)scale(0.16 -0.16)">
     <use xlink:href="#ArialMT-32"/>
     <use x="27.783203" xlink:href="#ArialMT-111"/>
     <use x="83.398438" xlink:href="#ArialMT-117"/>
     <use x="139.013672" xlink:href="#ArialMT-116"/>
     <use x="166.796875" xlink:href="#ArialMT-100"/>
     <use x="222.412109" xlink:href="#ArialMT-111"/>
     <use x="278.027344" xlink:href="#ArialMT-111"/>
     <use x="333.642578" xlink:href="#ArialMT-114"/>
     <use x="366.943359" xlink:href="#ArialMT-32"/>
     <use x="394.726562" xlink:href="#ArialMT-97"/>
     <use x="450.341797" xlink:href="#ArialMT-99"/>
     <use x="500.341797" xlink:href="#ArialMT-116"/>
     <use x="528.125" xlink:href="#ArialMT-105"/>
     <use x="550.341797" xlink:href="#ArialMT-118"/>
     <use x="600.341797" xlink:href="#ArialMT-105"/>
     <use x="622.558594" xlink:href="#ArialMT-116"/>
     <use x="650.341797" xlink:href="#ArialMT-105"/>
     <use x="672.558594" xlink:href="#ArialMT-101"/>
     <use x="728.173828" xlink:href="#ArialMT-115"/>
     <use x="778.173828" xlink:href="#ArialMT-32"/>
    </g>
    <!--  (walking around,  -->
    <g style="fill:#262626;" transform="translate(392.315082 329.953498)scale(0.16 -0.16)">
     <use xlink:href="#ArialMT-32"/>
     <use x="27.783203" xlink:href="#ArialMT-40"/>
     <use x="61.083984" xlink:href="#ArialMT-119"/>
     <use x="133.300781" xlink:href="#ArialMT-97"/>
     <use x="188.916016" xlink:href="#ArialMT-108"/>
     <use x="211.132812" xlink:href="#ArialMT-107"/>
     <use x="261.132812" xlink:href="#ArialMT-105"/>
     <use x="283.349609" xlink:href="#ArialMT-110"/>
     <use x="338.964844" xlink:href="#ArialMT-103"/>
     <use x="394.580078" xlink:href="#ArialMT-32"/>
     <use x="422.363281" xlink:href="#ArialMT-97"/>
     <use x="477.978516" xlink:href="#ArialMT-114"/>
     <use x="511.279297" xlink:href="#ArialMT-111"/>
     <use x="566.894531" xlink:href="#ArialMT-117"/>
     <use x="622.509766" xlink:href="#ArialMT-110"/>
     <use x="678.125" xlink:href="#ArialMT-100"/>
     <use x="733.740234" xlink:href="#ArialMT-44"/>
     <use x="761.523438" xlink:href="#ArialMT-32"/>
    </g>
    <!-- gardening, dancing) -->
    <g style="fill:#262626;" transform="translate(384.742582 347.297998)scale(0.16 -0.16)">
     <use xlink:href="#ArialMT-103"/>
     <use x="55.615234" xlink:href="#ArialMT-97"/>
     <use x="111.230469" xlink:href="#ArialMT-114"/>
     <use x="144.53125" xlink:href="#ArialMT-100"/>
     <use x="200.146484" xlink:href="#ArialMT-101"/>
     <use x="255.761719" xlink:href="#ArialMT-110"/>
     <use x="311.376953" xlink:href="#ArialMT-105"/>
     <use x="333.59375" xlink:href="#ArialMT-110"/>
     <use x="389.208984" xlink:href="#ArialMT-103"/>
     <use x="444.824219" xlink:href="#ArialMT-44"/>
     <use x="472.607422" xlink:href="#ArialMT-32"/>
     <use x="500.390625" xlink:href="#ArialMT-100"/>
     <use x="556.005859" xlink:href="#ArialMT-97"/>
     <use x="611.621094" xlink:href="#ArialMT-110"/>
     <use x="667.236328" xlink:href="#ArialMT-99"/>
     <use x="717.236328" xlink:href="#ArialMT-105"/>
     <use x="739.453125" xlink:href="#ArialMT-110"/>
     <use x="795.068359" xlink:href="#ArialMT-103"/>
     <use x="850.683594" xlink:href="#ArialMT-41"/>
    </g>
   </g>
   <g id="text_12">
    <!-- ball games -->
    <g style="fill:#262626;" transform="translate(287.212831 148.779268)scale(0.16 -0.16)">
     <use xlink:href="#ArialMT-98"/>
     <use x="55.615234" xlink:href="#ArialMT-97"/>
     <use x="111.230469" xlink:href="#ArialMT-108"/>
     <use x="133.447266" xlink:href="#ArialMT-108"/>
     <use x="155.664062" xlink:href="#ArialMT-32"/>
     <use x="183.447266" xlink:href="#ArialMT-103"/>
     <use x="239.0625" xlink:href="#ArialMT-97"/>
     <use x="294.677734" xlink:href="#ArialMT-109"/>
     <use x="377.978516" xlink:href="#ArialMT-101"/>
     <use x="433.59375" xlink:href="#ArialMT-115"/>
    </g>
   </g>
   <g id="text_13">
    <!-- other  -->
    <g style="fill:#262626;" transform="translate(419.419363 114.394768)scale(0.16 -0.16)">
     <use xlink:href="#ArialMT-111"/>
     <use x="55.615234" xlink:href="#ArialMT-116"/>
     <use x="83.398438" xlink:href="#ArialMT-104"/>
     <use x="139.013672" xlink:href="#ArialMT-101"/>
     <use x="194.628906" xlink:href="#ArialMT-114"/>
     <use x="227.929688" xlink:href="#ArialMT-32"/>
    </g>
    <!--  outdoor sports  -->
    <defs>
     <path d="M 6.59375 -19.875 
L 6.59375 51.859375 
L 14.59375 51.859375 
L 14.59375 45.125 
Q 17.4375 49.078125 21 51.046875 
Q 24.5625 53.03125 29.640625 53.03125 
Q 36.28125 53.03125 41.359375 49.609375 
Q 46.4375 46.1875 49.015625 39.953125 
Q 51.609375 33.734375 51.609375 26.3125 
Q 51.609375 18.359375 48.75 11.984375 
Q 45.90625 5.609375 40.453125 2.21875 
Q 35.015625 -1.171875 29 -1.171875 
Q 24.609375 -1.171875 21.109375 0.6875 
Q 17.625 2.546875 15.375 5.375 
L 15.375 -19.875 
z
M 14.546875 25.640625 
Q 14.546875 15.625 18.59375 10.84375 
Q 22.65625 6.0625 28.421875 6.0625 
Q 34.28125 6.0625 38.453125 11.015625 
Q 42.625 15.96875 42.625 26.375 
Q 42.625 36.28125 38.546875 41.203125 
Q 34.46875 46.140625 28.8125 46.140625 
Q 23.1875 46.140625 18.859375 40.890625 
Q 14.546875 35.640625 14.546875 25.640625 
z
" id="ArialMT-112"/>
    </defs>
    <g style="fill:#262626;" transform="translate(384.293113 131.317768)scale(0.16 -0.16)">
     <use xlink:href="#ArialMT-32"/>
     <use x="27.783203" xlink:href="#ArialMT-111"/>
     <use x="83.398438" xlink:href="#ArialMT-117"/>
     <use x="139.013672" xlink:href="#ArialMT-116"/>
     <use x="166.796875" xlink:href="#ArialMT-100"/>
     <use x="222.412109" xlink:href="#ArialMT-111"/>
     <use x="278.027344" xlink:href="#ArialMT-111"/>
     <use x="333.642578" xlink:href="#ArialMT-114"/>
     <use x="366.943359" xlink:href="#ArialMT-32"/>
     <use x="394.726562" xlink:href="#ArialMT-115"/>
     <use x="444.726562" xlink:href="#ArialMT-112"/>
     <use x="500.341797" xlink:href="#ArialMT-111"/>
     <use x="555.957031" xlink:href="#ArialMT-114"/>
     <use x="589.257812" xlink:href="#ArialMT-116"/>
     <use x="617.041016" xlink:href="#ArialMT-115"/>
     <use x="667.041016" xlink:href="#ArialMT-32"/>
    </g>
    <!--  (workout,  -->
    <g style="fill:#262626;" transform="translate(402.533113 148.474768)scale(0.16 -0.16)">
     <use xlink:href="#ArialMT-32"/>
     <use x="27.783203" xlink:href="#ArialMT-40"/>
     <use x="61.083984" xlink:href="#ArialMT-119"/>
     <use x="133.300781" xlink:href="#ArialMT-111"/>
     <use x="188.916016" xlink:href="#ArialMT-114"/>
     <use x="222.216797" xlink:href="#ArialMT-107"/>
     <use x="272.216797" xlink:href="#ArialMT-111"/>
     <use x="327.832031" xlink:href="#ArialMT-117"/>
     <use x="383.447266" xlink:href="#ArialMT-116"/>
     <use x="411.230469" xlink:href="#ArialMT-44"/>
     <use x="439.013672" xlink:href="#ArialMT-32"/>
    </g>
    <!--  frisbeegolf,  -->
    <g style="fill:#262626;" transform="translate(396.299363 165.819268)scale(0.16 -0.16)">
     <use xlink:href="#ArialMT-32"/>
     <use x="27.783203" xlink:href="#ArialMT-102"/>
     <use x="55.566406" xlink:href="#ArialMT-114"/>
     <use x="88.867188" xlink:href="#ArialMT-105"/>
     <use x="111.083984" xlink:href="#ArialMT-115"/>
     <use x="161.083984" xlink:href="#ArialMT-98"/>
     <use x="216.699219" xlink:href="#ArialMT-101"/>
     <use x="272.314453" xlink:href="#ArialMT-101"/>
     <use x="327.929688" xlink:href="#ArialMT-103"/>
     <use x="383.544922" xlink:href="#ArialMT-111"/>
     <use x="439.160156" xlink:href="#ArialMT-108"/>
     <use x="461.376953" xlink:href="#ArialMT-102"/>
     <use x="489.160156" xlink:href="#ArialMT-44"/>
     <use x="516.943359" xlink:href="#ArialMT-32"/>
    </g>
    <!--  orienteering) -->
    <g style="fill:#262626;" transform="translate(392.741863 183.163768)scale(0.16 -0.16)">
     <use xlink:href="#ArialMT-32"/>
     <use x="27.783203" xlink:href="#ArialMT-111"/>
     <use x="83.398438" xlink:href="#ArialMT-114"/>
     <use x="116.699219" xlink:href="#ArialMT-105"/>
     <use x="138.916016" xlink:href="#ArialMT-101"/>
     <use x="194.53125" xlink:href="#ArialMT-110"/>
     <use x="250.146484" xlink:href="#ArialMT-116"/>
     <use x="277.929688" xlink:href="#ArialMT-101"/>
     <use x="333.544922" xlink:href="#ArialMT-101"/>
     <use x="389.160156" xlink:href="#ArialMT-114"/>
     <use x="422.460938" xlink:href="#ArialMT-105"/>
     <use x="444.677734" xlink:href="#ArialMT-110"/>
     <use x="500.292969" xlink:href="#ArialMT-103"/>
     <use x="555.908203" xlink:href="#ArialMT-41"/>
    </g>
   </g>
   <g id="text_14">
    <!-- Instagram -->
    <defs>
     <path d="M 9.328125 0 
L 9.328125 71.578125 
L 18.796875 71.578125 
L 18.796875 0 
z
" id="ArialMT-73"/>
    </defs>
    <g style="fill:#262626;" transform="translate(241.84875 83.7696)scale(0.24 -0.24)">
     <use xlink:href="#ArialMT-73"/>
     <use x="27.783203" xlink:href="#ArialMT-110"/>
     <use x="83.398438" xlink:href="#ArialMT-115"/>
     <use x="133.398438" xlink:href="#ArialMT-116"/>
     <use x="161.181641" xlink:href="#ArialMT-97"/>
     <use x="216.796875" xlink:href="#ArialMT-103"/>
     <use x="272.412109" xlink:href="#ArialMT-114"/>
     <use x="305.712891" xlink:href="#ArialMT-97"/>
     <use x="361.328125" xlink:href="#ArialMT-109"/>
    </g>
   </g>
  </g>
 </g>
 <defs>
  <clipPath id="p137439dd94">
   <rect height="576.0216" width="446.4" x="72" y="89.7696"/>
  </clipPath>
 </defs>
</svg>
